<?xml version="1.0" encoding="UTF-8"?>
<svg xmlns="http://www.w3.org/2000/svg" xmlns:xlink="http://www.w3.org/1999/xlink" version="1.1" id="Layer_1" x="0px" y="0px" viewBox="0 0 24 24" style="enable-background:new 0 0 24 24;" xml:space="preserve">
<g>
	<path style="fill:#303C42;" d="M21,11c0-2.649-1.32-7.287-6.13-8.612C14.951,2.237,15,2.103,15,2c0-0.826-1.293-2-2.5-2   c-1.422,0-3.021,0.52-4.452,1.186C7.888,1.078,7.707,1,7.5,1C6.951,1,6.506,1.445,6.501,1.993C5.426,2.615,4.569,3.242,4.154,3.638   C3.389,4.37,3,5.486,3,6.955C3,7.27,3.148,7.544,3.417,7.726c0.021,0.014,0.054,0.017,0.076,0.03C3.105,8.99,3,10.181,3,11   c0,1.128,0.262,2.235,0.417,2.789C3.062,14.331,3,14.983,3,15.5c0,0.958,0.889,3.104,2.15,3.452c0.013,0.032,0.025,0.065,0.04,0.1   C5.735,20.405,7.183,24,12,24s6.265-3.595,6.81-4.949c0.015-0.035,0.027-0.068,0.04-0.1c1.262-0.348,2.15-2.494,2.15-3.452   c0-0.517-0.062-1.169-0.417-1.711C20.738,13.235,21,12.128,21,11z"/>
	<path style="fill:#01579B;" d="M4.846,4.362c0.395-0.377,1.187-0.945,2.167-1.507C7.159,2.939,7.319,3,7.5,3   c0.518,0,0.93-0.4,0.981-0.904C9.812,1.479,11.271,1,12.5,1c0.7,0,1.38,0.676,1.487,0.961c-0.33,0.586-2.895,3.118-5.173,4.029   C6.386,6.961,4.291,7.176,4,6.954C4,5.77,4.284,4.897,4.846,4.362z"/>
	<path style="opacity:0.2;fill:#FFFFFF;enable-background:new    ;" d="M4.5,6.955c0-1.186,0.284-2.058,0.846-2.593   C5.713,4.011,6.433,3.494,7.32,2.971C7.212,2.946,7.108,2.909,7.013,2.855c-0.98,0.562-1.772,1.13-2.167,1.507   C4.284,4.897,4,5.77,4,6.955C4.089,7.023,4.365,7.044,4.752,7.02C4.636,7.008,4.543,6.988,4.5,6.955z"/>
	<path style="fill:#6D4C41;" d="M4.636,8c1.42,0,3.433-0.634,4.55-1.081c1.69-0.676,3.883-2.387,5.032-3.66   C19.921,4.54,20,10.732,20,11c0,0.555-0.072,1.109-0.161,1.581C18.965,8.978,15.66,7,13.5,7c-0.108,0-0.214,0.035-0.3,0.1   C13.181,7.114,11.306,8.5,9,8.5c-2.727,0-4.373,2.246-4.853,4.006C4.065,12.052,4,11.526,4,11c0-0.762,0.097-1.876,0.467-3.015   C4.526,7.987,4.574,8,4.636,8z"/>
	<path style="fill:#FFE69B;" d="M18.5,18c-0.192,0-0.367,0.11-0.45,0.283c-0.047,0.096-0.102,0.23-0.167,0.395   c-0.495,1.229-1.626,4.018-5.288,4.295l0.398-2.391c0.046-0.272-0.139-0.53-0.411-0.575c-0.269-0.046-0.53,0.139-0.575,0.411   L12,20.458l-0.007-0.041c-0.046-0.272-0.308-0.458-0.575-0.411c-0.272,0.045-0.457,0.303-0.411,0.575l0.398,2.391   c-3.662-0.277-4.793-3.066-5.288-4.295c-0.065-0.165-0.12-0.299-0.167-0.395C5.867,18.11,5.692,18,5.5,18C4.872,18,4,16.264,4,15.5   c0-0.643,0.124-1.007,0.302-1.234c0.013-0.012,0.032-0.016,0.044-0.029c0.115-0.131,0.23-0.221,0.363-0.282   C4.887,13.872,5,13.695,5,13.5c0-1.357,1.412-4,4-4c2.27,0,4.124-1.137,4.651-1.496c1.675,0.099,4.882,1.792,5.353,5.558   c0.021,0.171,0.13,0.319,0.286,0.392c0.133,0.061,0.248,0.151,0.363,0.282c0.014,0.016,0.034,0.023,0.049,0.037   c0.175,0.228,0.297,0.59,0.297,1.227C20,16.264,19.128,18,18.5,18z"/>
	<path style="opacity:0.2;fill:#FFFFFF;enable-background:new    ;" d="M6.807,18.678c-0.058-0.165-0.106-0.299-0.147-0.395   C6.586,18.11,6.432,18,6.262,18c-0.554,0-1.324-1.736-1.324-2.5c0-0.643,0.11-1.007,0.267-1.234   c0.012-0.012,0.029-0.016,0.039-0.029c0.102-0.131,0.203-0.221,0.321-0.282c0.156-0.082,0.256-0.259,0.256-0.454   c0-1.357,1.247-4,3.531-4c1.011,0,1.928-0.29,2.649-0.623c-0.817,0.333-1.855,0.623-3,0.623c-2.588,0-4,2.643-4,4   c0,0.195-0.113,0.372-0.29,0.454c-0.133,0.061-0.248,0.151-0.363,0.282c-0.012,0.014-0.031,0.017-0.044,0.029   C4.124,14.493,4,14.857,4,15.5C4,16.264,4.872,18,5.5,18c0.192,0,0.367,0.11,0.45,0.283c0.047,0.096,0.102,0.23,0.167,0.395   c0.495,1.229,1.626,4.018,5.288,4.295l-0.002-0.01C8.23,22.65,7.241,19.897,6.807,18.678z"/>
	<path style="opacity:0.1;enable-background:new    ;" d="M19.703,14.273c-0.016-0.014-0.036-0.021-0.049-0.037   c-0.115-0.131-0.23-0.221-0.363-0.282c-0.156-0.073-0.265-0.221-0.286-0.392c-0.471-3.765-3.678-5.458-5.353-5.558   c-0.011,0.007-0.031,0.02-0.043,0.028c1.51,0.192,4.172,1.881,4.575,5.53c0.019,0.171,0.115,0.319,0.253,0.392   c0.117,0.061,0.219,0.151,0.321,0.282c0.012,0.016,0.03,0.023,0.044,0.037c0.155,0.228,0.262,0.59,0.262,1.227   c0,0.764-0.77,2.5-1.324,2.5c-0.17,0-0.324,0.11-0.397,0.283c-0.041,0.096-0.09,0.23-0.147,0.395   c-0.434,1.219-1.423,3.972-4.597,4.285l-0.002,0.01c3.662-0.277,4.793-3.066,5.288-4.295c0.065-0.165,0.12-0.299,0.167-0.395   C18.133,18.11,18.308,18,18.5,18c0.628,0,1.5-1.736,1.5-2.5C20,14.863,19.878,14.501,19.703,14.273z"/>
	<circle style="fill:#303C42;" cx="8.5" cy="14" r="1"/>
	<circle style="fill:#303C42;" cx="15.5" cy="14" r="1"/>
	<path style="fill:#303C42;" d="M11,17.279c-0.153,0-0.293,0.025-0.419,0.065c-0.454,0.13-0.754,0.446-0.983,0.697   c-0.389,0.425-0.583,0.64-1.396,0.281c-0.248-0.112-0.548,0.001-0.659,0.255c-0.112,0.252,0.002,0.547,0.255,0.659   c0.425,0.188,0.78,0.263,1.082,0.263c0.741,0,1.154-0.452,1.457-0.783c0.033-0.036,0.054-0.05,0.083-0.081   c0.162,0.085,0.353,0.144,0.58,0.144c0.579,0,1-0.315,1-0.75S11.579,17.279,11,17.279z"/>
	<path style="fill:#303C42;" d="M15.798,18.322c-0.813,0.36-1.008,0.145-1.396-0.281c-0.229-0.251-0.529-0.567-0.983-0.697   c-0.126-0.04-0.266-0.065-0.419-0.065c-0.579,0-1,0.315-1,0.75s0.421,0.75,1,0.75c0.227,0,0.417-0.059,0.58-0.144   c0.029,0.031,0.051,0.045,0.083,0.081c0.303,0.332,0.716,0.783,1.457,0.783c0.302,0,0.657-0.075,1.082-0.263   c0.253-0.112,0.367-0.407,0.255-0.659C16.346,18.323,16.047,18.209,15.798,18.322z"/>
	
		<linearGradient id="SVGID_1_" gradientUnits="userSpaceOnUse" x1="8.486" y1="20.035" x2="18.4706" y2="10.0505" gradientTransform="matrix(1 0 0 -1 0 24)">
		<stop offset="0" style="stop-color:#000000;stop-opacity:0.1"/>
		<stop offset="1" style="stop-color:#000000;stop-opacity:0"/>
	</linearGradient>
	<path style="fill:url(#SVGID_1_);" d="M9,8.5c2.307,0,4.182-1.386,4.2-1.4C13.286,7.035,13.391,7,13.5,7   c2.16,0,5.465,1.978,6.339,5.581C19.928,12.109,20,11.555,20,11c0-0.268-0.079-6.46-5.783-7.74   c-1.149,1.273-3.342,2.984-5.032,3.66C8.068,7.366,6.056,8,4.636,8c-0.061,0-0.11-0.013-0.169-0.016l1.591,1.591   C6.831,8.943,7.805,8.5,9,8.5z"/>
	
		<linearGradient id="SVGID_2_" gradientUnits="userSpaceOnUse" x1="2.0826" y1="16.4401" x2="20.9259" y2="7.6534" gradientTransform="matrix(1 0 0 -1 0 24)">
		<stop offset="0" style="stop-color:#FFFFFF;stop-opacity:0.2"/>
		<stop offset="1" style="stop-color:#FFFFFF;stop-opacity:0"/>
	</linearGradient>
	<path style="fill:url(#SVGID_2_);" d="M21,11c0-2.649-1.32-7.287-6.13-8.612C14.951,2.237,15,2.103,15,2c0-0.826-1.293-2-2.5-2   c-1.422,0-3.021,0.52-4.452,1.186C7.888,1.078,7.707,1,7.5,1C6.951,1,6.506,1.445,6.501,1.993C5.426,2.615,4.569,3.242,4.154,3.638   C3.389,4.37,3,5.486,3,6.955C3,7.27,3.148,7.544,3.417,7.726c0.021,0.014,0.054,0.017,0.076,0.03C3.105,8.99,3,10.181,3,11   c0,1.128,0.262,2.235,0.417,2.789C3.062,14.331,3,14.983,3,15.5c0,0.958,0.889,3.104,2.15,3.452c0.013,0.032,0.025,0.065,0.04,0.1   C5.735,20.405,7.183,24,12,24s6.265-3.595,6.81-4.949c0.015-0.035,0.027-0.068,0.04-0.1c1.262-0.348,2.15-2.494,2.15-3.452   c0-0.517-0.062-1.169-0.417-1.711C20.738,13.235,21,12.128,21,11z"/>
</g>

	<metadata>
		<rdf:RDF xmlns:rdf="http://www.w3.org/1999/02/22-rdf-syntax-ns#" xmlns:rdfs="http://www.w3.org/2000/01/rdf-schema#" xmlns:dc="http://purl.org/dc/elements/1.1/">
			<rdf:Description about="https://iconscout.com/legal#licenses" dc:title="people; avatar; head; male; artist (2)" dc:description="people; avatar; head; male; artist (2)" dc:publisher="Iconscout" dc:date="2017-03-22" dc:format="image/svg+xml" dc:language="en">
				<dc:creator>
					<rdf:Bag>
						<rdf:li>Alpár - Etele Méder</rdf:li>
					</rdf:Bag>
				</dc:creator>
			</rdf:Description>
		</rdf:RDF>
    </metadata></svg>
