<svg xmlns="http://www.w3.org/2000/svg" id="Layer_1" enable-background="new 0 0 64 64" viewBox="0 0 64 64"><path fill="#2b2f64" d="M59.43,51.48l-1.98-15.02c-0.46-3.43-3.33-6.3-6.83-6.97l-0.74-13.61c-0.09-1.54-1.08-2.81-2.46-3.34l0.24-2.4
		c0.14-1.34-0.3-2.67-1.2-3.67c-0.9-0.99-2.18-1.56-3.52-1.56h-3.14V2.85c0-1.57-1.5-2.85-3.36-2.85h-8.9
		c-1.85,0-3.36,1.28-3.36,2.85v2.07h-3.14c-1.34,0-2.62,0.57-3.52,1.56c-0.9,1-1.34,2.33-1.2,3.67l0.24,2.4
		c-1.39,0.52-2.38,1.79-2.46,3.34l-0.74,13.61c-3.5,0.67-6.37,3.54-6.83,6.97L4.57,51.48c-0.16,1.19,0.2,2.4,0.99,3.34
		c0.79,0.92,1.93,1.47,3.15,1.52l3.2,0.07L11.77,59c-0.07,1.32,0.39,2.57,1.3,3.52c0.9,0.95,2.12,1.48,3.44,1.48h30.97
		c1.32,0,2.54-0.53,3.44-1.48c0.91-0.95,1.37-2.2,1.3-3.52l-0.14-2.59l3.21-0.08c1.21-0.04,2.36-0.59,3.14-1.51
		C59.23,53.9,59.59,52.67,59.43,51.48z M12.01,54.47L8.77,54.4c-0.67-0.03-1.3-0.33-1.74-0.84c-0.44-0.51-0.62-1.16-0.54-1.82
		l1.98-15.01c0.33-2.47,2.31-4.56,4.8-5.23L12.01,54.47z M26.13,2.85c0-0.44,0.58-0.91,1.42-0.91h8.9c0.83,0,1.42,0.48,1.42,0.91
		v2.07H26.13V2.85z M22.36,40.19c-1.01,0.24-1.76,1.15-1.76,2.24v6.19c0,1.09,0.76,2,1.76,2.24v11.2h-5.85
		c-0.78,0-1.5-0.31-2.04-0.88c-0.53-0.56-0.81-1.3-0.77-2.08l0.19-3.59c0-0.01,0-0.02,0-0.02c0-0.01,0-0.01,0-0.02l2.14-39.49
		c0.03-0.56,0.31-1.06,0.74-1.38l0.99,9.75c0.24,2.39,2.2,4.18,4.59,4.25V40.19z M26.02,62.06H24.3V50.94h1.72V62.06z M27.79,48.62
		c0,0.21-0.17,0.38-0.38,0.38H22.9c-0.2,0-0.37-0.16-0.37-0.38v-6.19c0-0.21,0.16-0.38,0.37-0.38h0.41c0.01,0,0.01,0,0.02,0h3.64
		c0.01,0,0.01,0,0.01,0c0.01,0,0.01,0,0.02,0h0.42c0.2,0,0.38,0.16,0.38,0.38V48.62z M24.3,40.12v-11.5h1.71v11.5H24.3z
		 M36.04,40.19c-1.02,0.24-1.77,1.15-1.77,2.24v6.19c0,1.09,0.76,2,1.77,2.24v11.2h-8.09V50.87c1.01-0.25,1.77-1.15,1.77-2.25v-6.19
		c0-1.1-0.77-2-1.78-2.25V28.62h8.1V40.19z M39.69,62.06h-1.71V50.94h1.71V62.06z M41.46,48.62c0,0.21-0.16,0.38-0.37,0.38h-4.51
		c-0.2,0-0.38-0.16-0.38-0.38v-6.19c0-0.21,0.17-0.38,0.38-0.38h0.41c0.01,0,0.01,0,0.02,0h3.65c0.01,0,0.01,0,0.02,0h0.42
		c0.2,0,0.37,0.16,0.37,0.38V48.62z M37.98,40.12v-11.5h1.71v11.5H37.98z M22.5,26.68c-1.44,0-2.65-1.09-2.79-2.52l-1.12-10.99
		l-0.33-3.23c-0.08-0.8,0.17-1.56,0.71-2.16c0.54-0.59,1.28-0.92,2.08-0.92h21.9c0.8,0,1.54,0.33,2.08,0.92
		c0.53,0.6,0.79,1.37,0.71,2.16l-0.33,3.23L44.3,24.16c-0.15,1.44-1.35,2.52-2.79,2.52H22.5z M49.52,61.18
		c-0.53,0.57-1.26,0.88-2.04,0.88h-5.86V50.87c1.02-0.25,1.77-1.15,1.77-2.25v-6.19c0-1.1-0.76-2-1.77-2.25V28.61
		c2.39-0.07,4.35-1.87,4.6-4.26l0.99-9.75c0.43,0.32,0.71,0.81,0.74,1.38l2.14,39.49c0,0,0,0.01,0,0.02c0,0,0,0.01,0,0.02l0.19,3.59
		C50.34,59.88,50.06,60.62,49.52,61.18z M56.97,53.56c-0.44,0.51-1.07,0.81-1.73,0.84l-3.26,0.07L50.73,31.5
		c2.49,0.67,4.47,2.75,4.8,5.22l1.97,15.02C57.59,52.4,57.41,53.04,56.97,53.56z"/><rect width="1.71" height="11.12" x="37.98" y="50.94" fill="#4fbee6"/><path fill="#ffdc7d" d="M50.29,59.09c0.05,0.79-0.23,1.52-0.77,2.08c-0.53,0.57-1.26,0.88-2.04,0.88h-5.86V50.87
		c1.02-0.25,1.77-1.15,1.77-2.25v-6.19c0-1.1-0.76-2-1.77-2.25V28.61c2.39-0.07,4.35-1.87,4.6-4.26l0.99-9.75
		c0.43,0.32,0.71,0.81,0.74,1.38l2.14,39.49c0,0,0,0.01,0,0.02c0,0,0,0.01,0,0.02L50.29,59.09z"/><path fill="#ededee" d="M41.46,42.43v6.19c0,0.21-0.16,0.38-0.37,0.38h-4.51c-0.2,0-0.38-0.16-0.38-0.38v-6.19
		c0-0.21,0.17-0.38,0.38-0.38h0.41c0.01,0,0.01,0,0.02,0h3.65c0.01,0,0.01,0,0.02,0h0.42C41.3,42.06,41.46,42.22,41.46,42.43z"/><rect width="1.71" height="11.5" x="37.98" y="28.62" fill="#4fbee6"/><path fill="#ffdc7d" d="M34.27,42.43v6.19c0,1.09,0.76,2,1.77,2.24v11.2h-8.09V50.87c1.01-0.25,1.77-1.15,1.77-2.25v-6.19
		c0-1.1-0.77-2-1.78-2.25V28.62h8.1v11.58C35.03,40.44,34.27,41.35,34.27,42.43z"/><rect width="1.72" height="11.12" x="24.3" y="50.94" fill="#4fbee6"/><rect width="1.71" height="1.56" x="37.98" y="60.5" fill="#38a9da"/><rect width="8.09" height="1.56" x="27.96" y="60.5" fill="#ebc25d"/><rect width="1.72" height="1.56" x="24.3" y="60.5" fill="#38a9da"/><path fill="#ededee" d="M27.79,42.43v6.19c0,0.21-0.17,0.38-0.38,0.38H22.9c-0.2,0-0.37-0.16-0.37-0.38v-6.19
		c0-0.21,0.16-0.38,0.37-0.38h0.41c0.01,0,0.01,0,0.02,0h3.64c0.01,0,0.01,0,0.01,0c0.01,0,0.01,0,0.02,0h0.42
		C27.62,42.06,27.79,42.22,27.79,42.43z"/><path fill="#d7d6d6" d="M41.1 42.06h-.42c-.01 0-.01 0-.02 0h-3.65c-.01 0-.01 0-.02 0h-.41c-.2 0-.38.16-.38.38v6.19c0 .21.17.38.38.38h4.51c.2 0 .37-.16.37-.38v-6.19C41.46 42.22 41.3 42.06 41.1 42.06zM40.01 47.54h-2.35v-4.03h2.35V47.54zM27.41 42.06H27c-.01 0-.01 0-.02 0 0 0 0 0-.01 0h-3.64c-.01 0-.01 0-.02 0H22.9c-.2 0-.37.16-.37.38v6.19c0 .21.16.38.37.38h4.51c.2 0 .38-.16.38-.38v-6.19C27.79 42.22 27.62 42.06 27.41 42.06zM26.34 47.54h-2.35v-4.03h2.35V47.54z"/><rect width="1.71" height="11.5" x="24.3" y="28.62" fill="#4fbee6"/><path fill="#4fbee6" d="M45.03,7.78c-0.54-0.59-1.28-0.92-2.08-0.92h-21.9c-0.8,0-1.54,0.33-2.08,0.92c-0.53,0.6-0.79,1.37-0.71,2.16
		l0.33,3.23l1.12,10.99c0.15,1.44,1.35,2.52,2.79,2.52H41.5c1.44,0,2.65-1.09,2.79-2.52l1.12-10.99l0.33-3.23
		C45.82,9.14,45.57,8.38,45.03,7.78z M39.75,14.24h-1.76v1.5c0,0.53-0.44,0.97-0.97,0.97c-0.53,0-0.97-0.44-0.97-0.97v-1.5H24.25
		c-0.54,0-0.97-0.43-0.97-0.97c0-0.53,0.43-0.97,0.97-0.97h15.5c0.54,0,0.97,0.44,0.97,0.97C40.72,13.81,40.29,14.24,39.75,14.24z"/><path fill="#38a9da" d="M45.03,7.78c-0.54-0.59-1.28-0.92-2.08-0.92h-21.9c-0.8,0-1.54,0.33-2.08,0.92c-0.53,0.6-0.79,1.37-0.71,2.16
		l0.33,3.23l1.12,10.99c0.15,1.44,1.35,2.52,2.79,2.52H41.5c1.44,0,2.65-1.09,2.79-2.52l1.12-10.99l0.33-3.23
		C45.82,9.14,45.57,8.38,45.03,7.78z M43.95,13.61l-1,9.62c-0.13,1.25-1.2,2.2-2.48,2.2H23.53c-1.28,0-2.36-0.95-2.48-2.2l-1-9.62
		l-0.29-2.82c-0.07-0.7,0.16-1.37,0.63-1.89c0.48-0.51,1.14-0.8,1.86-0.8h19.49c0.72,0,1.38,0.29,1.86,0.8
		c0.48,0.52,0.7,1.19,0.63,1.89L43.95,13.61z"/><path fill="#ffdc7d" d="M20.6,42.43v6.19c0,1.09,0.76,2,1.76,2.24v11.2h-5.85c-0.78,0-1.5-0.31-2.04-0.88
		c-0.53-0.56-0.81-1.3-0.77-2.08l0.19-3.59c0-0.01,0-0.02,0-0.02c0-0.01,0-0.01,0-0.02l2.14-39.49c0.03-0.56,0.31-1.06,0.74-1.38
		l0.99,9.75c0.24,2.39,2.2,4.18,4.59,4.25v11.6C21.35,40.44,20.6,41.35,20.6,42.43z"/><path fill="#ebc25d" d="M50.29 59.09c.05.79-.23 1.52-.77 2.08-.53.57-1.26.88-2.04.88h-5.86V60.5h4.48c.71 0 1.37-.29 1.85-.81.49-.52.75-1.2.7-1.93l-.17-3.31c0-.01 0-.02 0-.02 0-.01 0-.02 0-.02l-1.83-34.26.56-5.55c.43.32.71.81.74 1.38l2.14 39.49c0 0 0 .01 0 .02 0 0 0 .01 0 .02L50.29 59.09zM22.36 60.5v1.56h-5.85c-.78 0-1.5-.31-2.04-.88-.53-.56-.81-1.3-.77-2.08l.19-3.59c0-.01 0-.02 0-.02 0-.01 0-.01 0-.02l2.14-39.49c.03-.56.31-1.06.74-1.38l.56 5.55-1.83 34.26c0 .01 0 .01 0 .02 0 0 0 .01 0 .02l-.17 3.31c-.05.73.21 1.41.7 1.93.48.52 1.14.81 1.85.81H22.36z"/><path fill="#2b2f64" d="M40.72,13.27c0,0.54-0.43,0.97-0.97,0.97h-1.76v1.5c0,0.53-0.44,0.97-0.97,0.97c-0.53,0-0.97-0.44-0.97-0.97
		v-1.5H24.25c-0.54,0-0.97-0.43-0.97-0.97c0-0.53,0.43-0.97,0.97-0.97h15.5C40.29,12.3,40.72,12.73,40.72,13.27z"/></svg>