<svg xmlns="http://www.w3.org/2000/svg" width="32" height="32" viewBox="0 0 32 32"><g transform="translate(0 -1020.362)"><path fill="#ffca5c" fill-rule="evenodd" d="m 21.49982,1028.8611 0,17.1896 c 0,1.0036 -0.80325,1.8115 -1.801,1.8115 l -10.40582,0 c -0.99776,0 -1.80101,-0.8079 -1.80101,-1.8115 l 0,-17.1896"/><path fill="#eceff8" d="m 11.52928,1023.8611 c -0.61071,-0.01 -1.19194,0.261 -1.57813,0.7324 -0.40162,0.4916 -0.54448,1.1443 -0.38476,1.7578 l -0.25196,-0.078 c -0.67138,-0.1809 -1.38802,-0.037 -1.93945,0.3887 -0.55143,0.4255 -0.87499,1.0843 -0.875,1.7832 l 0.006,0.9746 c 0,3.7826 9.7e-4,-2.5795 -0.006,1.2031 l 0,0.7813 c 0,0.8045 0.66777,1.4573 1.49219,1.457 l 0.006,0 c 0.82437,0 1.49218,-0.6525 1.49218,-1.457 l 0.006,-0.2461 0.004,-0.035 0,-0.248 c 0,-0.8056 0.66851,-1.459 1.49414,-1.459 l 0.0117,0 c 0.82563,0 1.49414,0.6534 1.49414,1.459 l 0,1.9863 0,0.541 c 0,0.8093 0.6688,1.4609 1.5,1.4609 0.8312,0 1.5,-0.6516 1.5,-1.4609 l 0,-2.3105 0,-0.2286 c 2e-5,-0.715 0.38122,-1.3749 1,-1.7324 0.38176,-0.2205 1.00145,-0.2376 1.24023,-0.2363 0.10796,4e-4 0.45263,0.075 0.77539,0.1445 0.0851,0.9567 0.83738,1.7315 1.81055,1.8164 1.03268,0.09 1.96269,-0.625 2.14258,-1.6465 0.18051,-1.0218 -0.44954,-2.0123 -1.45117,-2.2812 l -0.12305,0.096 c -0.0756,-0.7092 -0.55209,-1.3105 -1.22265,-1.543 -0.21211,-0.074 -0.43589,-0.1074 -0.66016,-0.1 -0.65697,0.024 -1.22546,0.4104 -1.5293,0.9805 -0.0682,-0.011 -0.14422,-0.015 -0.21484,-0.023 -0.35757,-0.7889 -1.0903,-1.3464 -1.95508,-1.4551 -0.13665,-0.017 -0.27449,-0.023 -0.41211,-0.018 -0.5112,0.02 -0.98999,0.2064 -1.39062,0.5059 l -0.10352,-0.1035 0.006,0 c -0.21784,-0.7017 -0.80554,-1.2271 -1.5293,-1.3672 -0.1165,-0.023 -0.2348,-0.035 -0.35351,-0.037 z"/><path fill-rule="evenodd" style="line-height:normal;text-indent:0;text-align:start;text-decoration-line:none;text-decoration-style:solid;text-decoration-color:#000;text-transform:none;block-progression:tb;isolation:auto;mix-blend-mode:normal" d="M 21.492188,1030.3457 A 0.50004997,0.50004997 0 0 0 21,1030.8535 l 0,15.1973 c 0,0.7368 -0.572939,1.3105 -1.300781,1.3105 l -10.4062502,0 c -0.7278555,0 -1.3007813,-0.5737 -1.3007813,-1.3105 l 0,-13.1582 a 0.50004997,0.50004997 0 1 0 -1,0 l 0,13.1582 c 0,1.2704 1.0331167,2.3105 2.3007813,2.3105 l 10.4062502,0 c 1.267657,0 2.300781,-1.0401 2.300781,-2.3105 l 0,-15.1973 a 0.50004997,0.50004997 0 0 0 -0.507812,-0.5078 z" color="#000" font-family="sans-serif" font-weight="400" overflow="visible" white-space="normal"/><path style="line-height:normal;text-indent:0;text-align:start;text-decoration-line:none;text-decoration-style:solid;text-decoration-color:#000;text-transform:none;block-progression:tb;isolation:auto;mix-blend-mode:normal" d="m 19.835938,1025.0078 c -1.208647,-0.4184 -2.539669,0.2329 -2.958985,1.4434 a 0.50004997,0.50004997 0 1 0 0.945313,0.3261 c 0.243612,-0.7032 0.990578,-1.0654 1.6875,-0.8242 0.696932,0.2413 1.064697,0.9942 0.826172,1.6992 a 0.50004997,0.50004997 0 1 0 0.947265,0.3204 c 0.410542,-1.2136 -0.2386,-2.5465 -1.447265,-2.9649 z" color="#000" font-family="sans-serif" font-weight="400" overflow="visible" white-space="normal"/><path style="line-height:normal;text-indent:0;text-align:start;text-decoration-line:none;text-decoration-style:solid;text-decoration-color:#000;text-transform:none;block-progression:tb;isolation:auto;mix-blend-mode:normal" d="M15.375 1024.3867c-1.082138-.1366-2.155599.3262-2.798828 1.2071a.5004219.5004219 0 0 0 .808594.5898c.429678-.5884 1.142363-.8959 1.865234-.8047.722883.091 1.337448.5654 1.607422 1.2422a.50050802.50050802 0 1 0 .929687-.3711c-.404151-1.0131-1.329953-1.7267-2.412109-1.8633zM17.5 1028.3633c-.431852 0-.863583.1107-1.25.334-.772809.4464-1.249972 1.2733-1.25 2.166a.50004997.50004997 0 1 0 1 0c.000017-.5373.285244-1.0323.75-1.3008.464771-.2685 1.035229-.2685 1.5 0a.50004997.50004997 0 1 0 .5-.8652c-.386417-.2233-.818148-.334-1.25-.334zM8.2011719 1025.75c-.4067844.081-.7956409.2555-1.1328125.5156C6.3940149 1026.786 6.0000122 1027.5922 6 1028.4453a.50005.50005 0 0 0 0 0l.00586.8848c-.000335 0-.00189.01-.00195.01-.0007145.013.0000796.014 0 .017-.000159.01.0000671.012 0 .018-.0000154 0 .0000151 0 0 .01-.000001-.0001-.0001056.0005 0 0 .0000156 0-.0000186 0 0 0-.000093.01.0000936.021 0 .037.0000038.0008-.0000037 0 0 0-.0002539.044-.00165.11-.00195.2071-.0006166.1959-.00108.5114-.00195.9843l0 .7813c0 1.0814.9041325 1.9568 1.9921875 1.957l.00586 0c1.0880933 0 1.9921875-.8756 1.9921875-1.957l.00586-.2363a.50009603.50009603 0 1 0-1-.02l-.00586.2461a.50005.50005 0 0 0 0 .01c0 .5276-.4315209.957-.9921875.957l-.00586 0C7.4314025 1032.3612 7 1031.9319 7 1031.4043l0-.7266c.0000683 0 .00586 0 .00586 0 .0000011 0-.0000012-.01 0-.01-.0000021-.0009.0000025 0 0-.01-.0000026 0 .0000026 0 0-.01-.0000107-.01.0000113-.023 0-.045-.0000227-.043.0000205-.1113 0-.209-.0000159-.076.0000117-.267 0-.3808-.0000185-.1798 0-.3121 0-.6016a.50005.50005 0 0 0 0 0L7 1028.4434c.0005786-.5441.2516586-1.0545.6796875-1.3848.4285168-.3307.9829342-.4412 1.5039063-.3008a.50079909.50079909 0 1 0 .2617187-.9668c-.410904-.1107-.8373562-.1224-1.2441406-.041zM21.720703 1032.3613a.50004997.50004997 0 1 0 0 1l2.445313 0c.500053 0 .833984.3342.833984.8262l0 8.3711c0 .4921-.333887.8262-.833984.8262l-2.445313 0a.50004997.50004997 0 1 0 0 1l2.445313 0c1.008942 0 1.833984-.8187 1.833984-1.8262l0-8.3711c0-1.0074-.824998-1.8262-1.833984-1.8262l-2.445313 0z" color="#000" font-family="sans-serif" font-weight="400" overflow="visible" white-space="normal"/><path style="line-height:normal;text-indent:0;text-align:start;text-decoration-line:none;text-decoration-style:solid;text-decoration-color:#000;text-transform:none;block-progression:tb;isolation:auto;mix-blend-mode:normal" d="M10.994141 1028.916C9.9047996 1028.916 9 1029.7925 9 1030.875l0 .248a.50005.50005 0 1 0 1 0l0-.248c0-.5287.432242-.959.994141-.959l.01172 0c.561913 0 .994141.4304.994141.959l0 1.9863 0 .5391c0 1.0849.907491 1.9609 2 1.9609 1.092509 0 2-.876 2-1.9609l0-2.3086a.50005.50005 0 1 0-1 0l0 2.3086c0 .5337-.430109.9609-1 .9609-.569196 0-.998952-.4262-1-.959l0 0 0-.5391 0-1.9863c0-1.0826-.904793-1.959-1.994141-1.959l-.01172 0zM20.998047 1026.4258a.50004997.50004997 0 0 0-.109375.9844c.755446.2025 1.223772.9397 1.08789 1.7109-.135904.7711-.828339 1.3045-1.607421 1.2363-.779075-.068-1.369114-.713-1.369141-1.4961a.50004997.50004997 0 1 0-1 0c.000045 1.2923.99425 2.3795 2.28125 2.4922 1.287013.1127 2.45735-.7859 2.681641-2.0586.224254-1.2726-.568515-2.515-1.816407-2.8496a.50004997.50004997 0 0 0-.148437-.02zM10.492188 1035.707A.50005.50005 0 0 0 10 1036.2148l0 8.9434a.50005.50005 0 1 0 1 0l0-8.9434a.50005.50005 0 0 0-.507812-.5078zM14.492188 1035.707A.50005.50005 0 0 0 14 1036.2148l0 8.9434a.50005.50005 0 1 0 1 0l0-8.9434a.50005.50005 0 0 0-.507812-.5078zM18.492188 1035.707A.50005.50005 0 0 0 18 1036.2148l0 8.9434a.50005.50005 0 1 0 1 0l0-8.9434a.50005.50005 0 0 0-.507812-.5078zM11.978516 1023.4062c-.902744-.1756-1.831371.1587-2.4140629.8692-.5827199.7105-.7265534 1.6873-.3730469 2.5351a.50036284.50036284 0 0 0 .9238278-.3847c-.2120067-.5085-.1273557-1.0889.222657-1.5156.349995-.4268.905133-.6274 1.449218-.5215.544101.1058.983618.4994 1.146485 1.0254a.50005.50005 0 1 0 .955078-.295c-.27167-.8773-1.007388-1.5372-1.910156-1.7129z" color="#000" font-family="sans-serif" font-weight="400" overflow="visible" white-space="normal"/></g></svg>