<?xml version="1.0" encoding="UTF-8"?><svg xmlns="http://www.w3.org/2000/svg" xmlns:xlink="http://www.w3.org/1999/xlink" version="1.1" id="Layer_1" x="0px" y="0px" viewBox="0 0 24 24" xml:space="preserve"><path fill="#303C42" d="M19.985 23.379l-.326-1.303a4.03 4.03 0 0 0-.69-1.451 4.077 4.077 0 0 0-3.057-1.614l-1.298-6.49a9.09 9.09 0 0 0 2.185-1.12.5.5 0 0 0 0-.802 8.75 8.75 0 0 0-1.307-.753C16.157 8.716 17 7.075 17 6a2.002 2.002 0 0 0-2.874-1.799A2.499 2.499 0 0 0 12.5 3.066V2h.5a.5.5 0 1 0 0-1h-.5V.5a.5.5 0 1 0-1 0V1H11a.5.5 0 1 0 0 1h.5v1.066a2.499 2.499 0 0 0-1.626 1.135A2.002 2.002 0 0 0 7 6c0 1.075.843 2.717 1.508 3.846a8.746 8.746 0 0 0-1.307.753.5.5 0 0 0 0 .802 9.09 9.09 0 0 0 2.185 1.12l-1.298 6.49a4.077 4.077 0 0 0-3.056 1.614 4.028 4.028 0 0 0-.691 1.452l-.326 1.302A.499.499 0 0 0 4.5 24h15a.5.5 0 0 0 .485-.621z"/><path fill="#757575" d="M8 6c0-.551.449-1 1-1a.99.99 0 0 1 .72.31.5.5 0 0 0 .843-.21c.18-.648.772-1.1 1.437-1.1s1.256.452 1.437 1.1a.499.499 0 0 0 .843.21A.99.99 0 0 1 15 5c.551 0 1 .449 1 1 0 .666-.538 1.945-1.444 3.46C13.818 9.203 12.946 9 12 9s-1.818.202-2.556.46C8.538 7.946 8 6.667 8 6z"/><path opacity="0.2" fill="#FFF" d="M14.437 5.638a.499.499 0 0 0 .843.212.981.981 0 0 1 .608-.288A.994.994 0 0 0 15 5a.99.99 0 0 0-.717.308c.06.105.12.21.154.33z"/><path opacity="0.2" fill="#FFF" d="M9 6.54c0-.552.449-1 1-1a.99.99 0 0 1 .72.31.5.5 0 0 0 .843-.212c.18-.647.772-1.099 1.437-1.099.05 0 .095.02.143.024A1.481 1.481 0 0 0 12 4c-.665 0-1.256.452-1.437 1.1a.499.499 0 0 1-.843.21A.99.99 0 0 0 9 5c-.551 0-1 .449-1 1 0 .666.538 1.945 1.444 3.46.187-.065.384-.127.588-.183C9.38 8.084 9 7.096 9 6.54z"/><path fill="#757575" d="M12 10c1.483 0 2.806.586 3.556 1.001-.747.414-2.067.999-3.556.999-1.483 0-2.806-.586-3.556-1.001C9.191 10.585 10.511 10 12 10z"/><path opacity="0.1" d="M12.012 10.001a9.32 9.32 0 0 1 1.1.5c-.748.414-2.067.999-3.556.999l-.013-.001c.698.27 1.537.501 2.457.501 1.49 0 2.809-.585 3.556-.999-.748-.413-2.066-.996-3.544-1z"/><path fill="#757575" d="M12 13c.584 0 1.135-.084 1.65-.203L14.89 19H9.11l1.24-6.203A7.295 7.295 0 0 0 12 13z"/><path opacity="0.2" fill="#FFF" d="M10.35 12.797L9.11 19h1.39l.63-6.06a8.343 8.343 0 0 1-.78-.143z"/><path opacity="0.1" d="M13.65 12.797c-.251.058-.511.107-.78.143L13.5 19h1.39l-1.24-6.203z"/><path fill="#757575" d="M5.14 22.994l.17-.68c.1-.4.276-.768.522-1.095a3.077 3.077 0 0 1 2.449-1.225h7.438c.959 0 1.874.458 2.45 1.225.245.327.42.695.52 1.094l.17.681H5.141z"/><path opacity="0.1" d="M18.69 22.324a3.042 3.042 0 0 0-.522-1.093 3.077 3.077 0 0 0-2.449-1.225h-2.14c.958 0 1.874.458 2.449 1.224.245.327.42.696.52 1.094l.17.682h2.141l-.17-.682z"/><path opacity="0.2" fill="#FFF" d="M5.31 22.324c.1-.398.276-.767.522-1.093a3.077 3.077 0 0 1 2.449-1.225h2.14c-.958 0-1.874.458-2.449 1.224-.245.327-.42.696-.52 1.094l-.17.682H5.14l.17-.682z"/><linearGradient id="SVGID_1_" gradientUnits="userSpaceOnUse" x1="4.7553658" y1="10.3703194" x2="22.348587" y2="18.574173"><stop offset="0" stop-color="#FFF" stop-opacity="0.2"/><stop offset="1" stop-color="#FFF" stop-opacity="0"/></linearGradient><path fill="url(#SVGID_1_)" d="M19.985 23.379l-.326-1.303a4.03 4.03 0 0 0-.69-1.451 4.077 4.077 0 0 0-3.057-1.614l-1.298-6.49a9.09 9.09 0 0 0 2.185-1.12.5.5 0 0 0 0-.802 8.75 8.75 0 0 0-1.307-.753C16.157 8.716 17 7.075 17 6a2.002 2.002 0 0 0-2.874-1.799A2.499 2.499 0 0 0 12.5 3.066V2h.5a.5.5 0 1 0 0-1h-.5V.5a.5.5 0 1 0-1 0V1H11a.5.5 0 1 0 0 1h.5v1.066a2.499 2.499 0 0 0-1.626 1.135A2.002 2.002 0 0 0 7 6c0 1.075.843 2.717 1.508 3.846a8.746 8.746 0 0 0-1.307.753.5.5 0 0 0 0 .802 9.09 9.09 0 0 0 2.185 1.12l-1.298 6.49a4.077 4.077 0 0 0-3.056 1.614 4.028 4.028 0 0 0-.691 1.452l-.326 1.302A.499.499 0 0 0 4.5 24h15a.5.5 0 0 0 .485-.621z"/><metadata><rdf:RDF xmlns:rdf="http://www.w3.org/1999/02/22-rdf-syntax-ns#" xmlns:rdfs="http://www.w3.org/2000/01/rdf-schema#" xmlns:dc="http://purl.org/dc/elements/1.1/"><rdf:Description about="https://iconscout.com/legal#licenses" dc:title="leisure,chess,game,king,figure" dc:description="leisure,chess,game,king,figure" dc:publisher="Iconscout" dc:date="2017-08-16" dc:format="image/svg+xml" dc:language="en"><dc:creator><rdf:Bag><rdf:li>Those Icons</rdf:li></rdf:Bag></dc:creator></rdf:Description></rdf:RDF></metadata></svg>