<svg xmlns="http://www.w3.org/2000/svg" viewBox="0 0 64 64"><rect width="49.14" height="15.05" x="7.43" y="42.72" fill="#90a4ae"/><rect width="20.85" height=".84" x="24.33" y="38.88" fill="#ffb74d"/><circle cx="32" cy="50.24" r="5.5" fill="#546e7a"/><rect width="30.64" height="7.13" x="17.93" y="28.75" fill="#424242"/><path d="M26 20a1.5 1.5 0 0 1-1.5-1.5V4.74a1.5 1.5 0 0 1 3 0V18.5A1.5 1.5 0 0 1 26 20zM32 20a1.5 1.5 0 0 1-1.5-1.5V4.74a1.5 1.5 0 0 1 3 0V18.5A1.5 1.5 0 0 1 32 20zM38.38 20a1.5 1.5 0 0 1-1.5-1.5V4.74a1.5 1.5 0 0 1 3 0V18.5A1.5 1.5 0 0 1 38.38 20zM32 56.62a6.38 6.38 0 1 1 6.38-6.38A6.38 6.38 0 0 1 32 56.62zm0-9.75a3.38 3.38 0 1 0 3.38 3.37A3.37 3.37 0 0 0 32 46.87z"/><path d="M28.71,55.11a1.51,1.51,0,0,1-1.07-2.57l4-4a1.5,1.5,0,0,1,2.12,2.13l-4,4A1.53,1.53,0,0,1,28.71,55.11Z"/><path d="M55.07,39.72h-9.9v-.84h1.9a4.51,4.51,0,0,0,4.5-4.5V27.25a1.5,1.5,0,0,0-1.5-1.5H16.89L5.57,18.13A1.5,1.5,0,0,0,3.9,20.62l11,7.43v6.33a4.51,4.51,0,0,0,4.5,4.5h4.9v.84H8.93a1.5,1.5,0,0,0-1.5,1.5v18a1.5,1.5,0,0,0,1.5,1.5H55.07a1.5,1.5,0,0,0,1.5-1.5v-18A1.5,1.5,0,0,0,55.07,39.72Zm-15.57,0v-.84h2.67v.84Zm-6,0v-.84h3v.84ZM19.43,35.88a1.5,1.5,0,0,1-1.5-1.5V28.75H48.57v5.63a1.51,1.51,0,0,1-1.5,1.5Zm7.9,3H30.5v.84H27.33ZM53.57,57.76H10.43v-15H53.57Z"/></svg>