<svg xmlns="http://www.w3.org/2000/svg" enable-background="new 0 0 60 60" viewBox="0 0 60 60"><path fill="#2B79C2" d="M45.9194641,10.2302332h-0.25l-13.4699707,0.3499756l-0.0400391-1.6199951
	c-0.039978-1.6799922-1.4400024-2.9899898-3.1199951-2.9599605L9.0195007,6.5302215
	C8.2095032,6.550241,7.4494929,6.8902678,6.8995051,7.4702239C6.3395076,8.0602503,6.0394588,8.8302088,6.0594783,9.6502161
	l0.1400146,5.25c0.0499878,1.6400156,1.3999634,2.9500132,3.0399785,2.9500132h0.0800171l20.0200195-0.5200195
	c1.6799927-0.0499878,3-1.4499521,2.9599609-3.1199961l-0.039978-1.6300049l8.1699829-0.2099609
	c-1.6400146,1.5200195-2.6599731,3.7099619-2.5899658,6.1099863c0.1099854,4.3699951,3.6999512,7.8499756,8.0499878,7.8499756
	h0.2099609c0.1100464,0,0.210022-0.0199585,0.3200073-0.0299683l-5.7799683,5.7899761l-1.1500244-1.1499615
	c-1.1499634-1.1500244-3.1499634-1.1500244-4.2999878,0L21.0295105,45.1002274
	c-1.1900024,1.1799927-1.1900024,3.1099854,0,4.2999878l3.7099609,3.710022
	c0.5700073,0.5700073,1.3400269,0.8900146,2.1500244,0.8900146s1.5700073-0.3200073,2.1499634-0.8900146L43.1994934,38.950264
	c1.1799927-1.1900024,1.1799927-3.1200562,0-4.3000488l-1.1500244-1.1499634l9.5300293-9.5300274
	c0.0100098-0.0100098,0.0100098-0.0199585,0.0199585-0.0299683c1.4900513-1.5100098,2.3900146-3.5900269,2.3400269-5.8800049
	C53.8194885,13.7102137,50.2494812,10.2302332,45.9194641,10.2302332z M46.049469,24.3302097
	c-3.3099976,0.0800171-6.1300049-2.5599976-6.2099609-5.8999634c-0.0900269-3.330018,2.5499878-6.1099863,5.8799438-6.2000132
	h0.1600342c3.2700195,0,5.9699707,2.6099854,6.0599976,5.8800058C52.0195007,21.4602146,49.3794861,24.2402439,46.049469,24.3302097
	z"/></svg>