<svg xmlns="http://www.w3.org/2000/svg" width="32" height="32" viewBox="0 0 32 32"><g transform="matrix(-1 0 0 1 -1425.685 -615.01)"><path fill="#fbd67e" fill-rule="evenodd" d="m -1430.1836,-400.85156 -4.3086,0.5625 -9.1914,9.17578 c -3.0373,-1.2453 -6.5297,-0.17305 -8.3476,2.56055 -1.818,2.7335 -1.4558,6.368 0.8671,8.6875 2.323,2.3194 5.9606,2.67736 8.6914,0.85546 2.7308,-1.822 3.7966,-5.31606 2.5469,-8.35156 l 2.4356,-2.4375 0.1875,-2.06055 2.0605,-0.1875 0.1875,-2.06054 2.0606,-0.1875 0.1875,-2.06055 2.0605,-0.1875 z m -17.4707,15.49804 a 2.0030899,2.0031931 45 0 1 1.3867,0.58594 2.0030899,2.0031931 45 0 1 0,2.83203 2.0030899,2.0031931 45 0 1 -2.834,0 2.0030899,2.0031931 45 0 1 0,-2.83203 2.0030899,2.0031931 45 0 1 1.4453,-0.58594 z" transform="translate(0 1020.362)"/><g stroke="#444166" transform="translate(-469.21 -512.34)"><g transform="translate(-1018.475 86.739)"><path fill="#586597" stroke="none" d="m 38.230725,1060.8425 c -0.973361,0.9733 -0.974725,2.5663 -0.0014,3.5396 0.97334,0.9734 2.567703,0.9734 3.541064,0 0.97336,-0.9733 0.971953,-2.5663 -0.0014,-3.5396 -0.97334,-0.9734 -2.564931,-0.9734 -3.538292,0 z m 0.707107,0.7071 c 0.591226,-0.5912 1.532908,-0.5912 2.124078,0 0.59117,0.5911 0.592612,1.5342 0.0014,2.1254 -0.591233,0.5913 -1.53568,0.5912 -2.12685,0 -0.59117,-0.5911 -0.589847,-1.5342 0.0014,-2.1254 z" color="#000" font-family="sans-serif" font-weight="400" overflow="visible" white-space="normal" style="line-height:normal;font-variant-ligatures:normal;font-variant-position:normal;font-variant-caps:normal;font-variant-numeric:normal;font-variant-alternates:normal;font-feature-settings:normal;text-indent:0;text-align:start;text-decoration-line:none;text-decoration-style:solid;text-decoration-color:#000;text-transform:none;text-orientation:mixed;shape-padding:0;isolation:auto;mix-blend-mode:normal"/><path fill="#586597" fill-rule="evenodd" stroke="none" d="m 57.5,1044.6133 a 0.50005,0.50005 0 0 0 -0.06445,0 l -4.308594,0.5605 a 0.50005,0.50005 0 0 0 -0.289062,0.1426 l -9.001953,8.9902 c -1.526993,-0.5382 -3.13865,-0.6024 -4.613282,-0.1503 a 0.50041978,0.50041978 0 1 0 0.292969,0.957 c 1.373372,-0.421 2.885053,-0.3807 4.294922,0.1973 a 0.50005,0.50005 0 0 0 0.542969,-0.1094 l 9.070312,-9.0567 3.496094,-0.457 -0.425781,3.2676 -1.66211,0.1523 a 0.50005,0.50005 0 0 0 -0.453125,0.4512 l -0.15039,1.6465 -1.644532,0.1504 a 0.50005,0.50005 0 0 0 -0.453125,0.4531 l -0.15039,1.6445 -1.644531,0.1504 a 0.50005,0.50005 0 0 0 -0.453126,0.4531 l -0.171874,1.8809 -2.306641,2.3066 a 0.50005,0.50005 0 0 0 -0.109375,0.545 c 1.160216,2.818 0.17384,6.0546 -2.361328,7.7461 -2.53517,1.6913 -5.904029,1.3602 -8.060547,-0.793 -2.156484,-2.1533 -2.49232,-5.5209 -0.804688,-8.0586 a 0.5008047,0.5008047 0 1 0 -0.833984,-0.5547 c -1.948118,2.9294 -1.557736,6.8346 0.931641,9.3203 2.489423,2.4856 6.395819,2.8704 9.322265,0.918 2.82229,-1.883 3.932475,-5.4347 2.810547,-8.6035 l 2.248047,-2.2481 a 0.50005,0.50005 0 0 0 0.144531,-0.3086 l 0.148438,-1.6445 1.646484,-0.1504 a 0.50005,0.50005 0 0 0 0.453125,-0.4531 l 0.150391,-1.6465 1.644531,-0.1484 a 0.50005,0.50005 0 0 0 0.453125,-0.4532 l 0.150391,-1.6464 1.644531,-0.1485 a 0.50005,0.50005 0 0 0 0.451172,-0.4336 l 0.5625,-4.3086 A 0.50005,0.50005 0 0 0 57.5,1044.6133 Z" color="#000" font-family="sans-serif" font-weight="400" overflow="visible" white-space="normal" style="line-height:normal;font-variant-ligatures:normal;font-variant-position:normal;font-variant-caps:normal;font-variant-numeric:normal;font-variant-alternates:normal;font-feature-settings:normal;text-indent:0;text-align:start;text-decoration-line:none;text-decoration-style:solid;text-decoration-color:#000;text-transform:none;text-orientation:mixed;shape-padding:0;isolation:auto;mix-blend-mode:normal"/></g><path fill="#586597" stroke="none" d="m -980.75981,1142.4796 a 0.5,0.5 0 0 1 -0.5,0.5 0.5,0.5 0 0 1 -0.5,-0.5 0.5,0.5 0 0 1 0.5,-0.5 0.5,0.5 0 0 1 0.5,0.5 z"/></g></g></svg>