<?xml version="1.0" encoding="UTF-8"?><svg xmlns="http://www.w3.org/2000/svg" xmlns:xlink="http://www.w3.org/1999/xlink" version="1.1" id="Layer_1" x="0px" y="0px" viewBox="0 0 24 24" xml:space="preserve"><path fill="#303C42" d="M18.854 22.147c-.03-.03-1.567-1.621-3.058-4.72l.19-.813A.501.501 0 0 0 15.5 16h-.334a27.025 27.025 0 0 1-.795-2.193c.024-.03.058-.048.076-.083l.5-1A.499.499 0 0 0 14.5 12h-.627c-.511-2.109-.85-4.543-.867-7.3l.348-.346A.5.5 0 0 0 13.5 4V2.5a.5.5 0 0 0-.146-.354l-.864-.863c-.002-.275.01-.77.01-.772A.5.5 0 0 0 12.01 0c-.293.014-.504.213-.51.49-.008.374-.014.632-.011.814l-.843.842a.5.5 0 0 0-.146.354V4a.5.5 0 0 0 .146.354l.348.347c-.016 2.756-.356 5.19-.867 7.299H9.5a.5.5 0 0 0-.447.724l.5 1c.018.037.047.063.073.093A27.03 27.03 0 0 1 8.834 16H8.5a.5.5 0 0 0-.487.614l.191.812c-1.491 3.1-3.028 4.69-3.058 4.721A.5.5 0 0 0 5 22.5v1a.5.5 0 0 0 .5.5h3.002a.5.5 0 0 0 .5-.5c0-1.742.927-3.5 2.998-3.5 2.087 0 3.022 1.758 3.022 3.5a.5.5 0 0 0 .5.5H18.5a.5.5 0 0 0 .5-.5v-1a.5.5 0 0 0-.146-.353z"/><path fill="#D7CCC8" d="M11.5 2.707l.5-.5.5.5v1.086l-.353.353-.001.001-.146.146-.146-.146-.001-.001-.353-.353z"/><path fill="#D7CCC8" d="M11.972 5.495c.01 0 .019.005.028.005s.018-.005.028-.005c.067 2.42.359 4.596.799 6.505h-1.654c.44-1.91.732-4.085.8-6.505z"/><path fill="#D7CCC8" d="M10.918 13h2.164c.291 1.09.62 2.093.974 3H9.944c.353-.907.683-1.91.974-3z"/><path fill="#D7CCC8" d="M18 23h-1.998c-.195-2.38-1.786-4-4.002-4-2.203 0-3.784 1.62-3.978 4H6v-.3c.497-.54 2.102-2.439 3.528-5.7h4.944c1.426 3.261 3.03 5.16 3.528 5.7v.3z"/><linearGradient id="SVGID_1_" gradientUnits="userSpaceOnUse" x1="6.5062723" y1="10.9537392" x2="21.6166725" y2="17.9998341"><stop offset="0" stop-color="#FFF" stop-opacity="0.2"/><stop offset="1" stop-color="#FFF" stop-opacity="0"/></linearGradient><path fill="url(#SVGID_1_)" d="M18.854 22.147c-.03-.03-1.567-1.621-3.058-4.72l.19-.813A.501.501 0 0 0 15.5 16h-.334a27.025 27.025 0 0 1-.795-2.193c.024-.03.058-.048.076-.083l.5-1A.499.499 0 0 0 14.5 12h-.627c-.511-2.109-.85-4.543-.867-7.3l.348-.346A.5.5 0 0 0 13.5 4V2.5a.5.5 0 0 0-.146-.354l-.864-.863c-.002-.275.01-.77.01-.772A.5.5 0 0 0 12.01 0c-.293.014-.504.213-.51.49-.008.374-.014.632-.011.814l-.843.842a.5.5 0 0 0-.146.354V4a.5.5 0 0 0 .146.354l.348.347c-.016 2.756-.356 5.19-.867 7.299H9.5a.5.5 0 0 0-.447.724l.5 1c.018.037.047.063.073.093A27.03 27.03 0 0 1 8.834 16H8.5a.5.5 0 0 0-.487.614l.191.812c-1.491 3.1-3.028 4.69-3.058 4.721A.5.5 0 0 0 5 22.5v1a.5.5 0 0 0 .5.5h3.002a.5.5 0 0 0 .5-.5c0-1.742.927-3.5 2.998-3.5 2.087 0 3.022 1.758 3.022 3.5a.5.5 0 0 0 .5.5H18.5a.5.5 0 0 0 .5-.5v-1a.5.5 0 0 0-.146-.353z"/><metadata><rdf:RDF xmlns:rdf="http://www.w3.org/1999/02/22-rdf-syntax-ns#" xmlns:rdfs="http://www.w3.org/2000/01/rdf-schema#" xmlns:dc="http://purl.org/dc/elements/1.1/"><rdf:Description about="https://iconscout.com/legal#licenses" dc:title="place,architecture,building,landmark,paris,eiffel,tower" dc:description="place,architecture,building,landmark,paris,eiffel,tower" dc:publisher="Iconscout" dc:date="2017-08-16" dc:format="image/svg+xml" dc:language="en"><dc:creator><rdf:Bag><rdf:li>Those Icons</rdf:li></rdf:Bag></dc:creator></rdf:Description></rdf:RDF></metadata></svg>