<svg xmlns="http://www.w3.org/2000/svg" data-name="Layer 1" viewBox="0 0 512 512"><path fill="#8399e8" d="M80.76709,415.29541a5.52157,5.52157,0,0,1,.02867-2.6965c.73858-3.2036,1.45437-6.41392,2.0899-9.63921.32385-1.64351.48077-3.32176.67251-4.989.25572-2.22377.47194-4.45207.705-6.67844.0292-.27883.07284-.55713.08444-.83671.14517-3.49918.43862-6.98863.56329-10.49193.147-4.13056.18931-8.27.45-12.3907.32365-5.11576.19524-10.2316.36924-15.3443.14062-4.13188.45244-8.26538.248-12.3971-.2426-4.90226-.07686-9.8211-.45119-14.70618-.26234-3.42355-.0898-6.86964-.615-10.2726a.94393.94393,0,0,1-.00751-.21c.31622-4.38784.13608-8.82241,1.486-13.10544a43.77555,43.77555,0,0,1,3.67209-8.69392A21.39491,21.39491,0,0,1,100.442,283.6706a69.41,69.41,0,0,1,16.89645-4.92333c3.11138-.47252,6.23793-.846,9.359-1.25349,4.09238-.53439,8.18284-1.08548,12.28037-1.57753,2.9874-.35872,5.98654-.61869,8.97741-.94991,3.268-.36187,6.53118-.76621,9.79891-1.13,1.66957-.18593,3.34345-.33564,5.0172-.4808,3.69571-.32058,7.39744-.58008,11.08738-.956,2.92132-.29758,5.82617-.75339,8.74331-1.09679q2.71092-.3191,5.43682-.50758a28.73985,28.73985,0,0,0,6.37067-1.26,4.64394,4.64394,0,0,0,2.629-1.96439,18.81058,18.81058,0,0,0,1.94726-3.94688,84.38747,84.38747,0,0,0,3.22125-11.73765c.83448-3.97074,1.55672-7.965,2.3282-11.949.37162-3.43192.7849-3.80038,4.27632-3.26836,11.03434,1.68142,22.0523.81872,33.08779-.02012,10.74053-.81641,21.399-2.80481,32.23217-2.31427,1.09548.0496,2.26326-.2254,3.21642.60471a2.53749,2.53749,0,0,1,.86987,1.16019q2.08172,4.71031,4.172,9.41683c1.97089,4.42318,3.549,8.9906,5.09327,13.5756a48.88052,48.88052,0,0,0,5.99886,12.2359,29.43273,29.43273,0,0,0,3.03882,3.75633c2.387,2.4739,4.88452,4.827,7.41821,7.15317,3.8212,3.50813,7.74559,6.92384,11.22154,10.78686,3.00219,3.33646,6.24639,6.44273,9.15285,9.87133,4.17023,4.9194,8.35094,9.82773,12.27294,14.95,1.876,2.4502,3.91308,4.766,5.90243,7.123,2.80512,3.32347,5.732,6.53549,8.66509,9.742a112.87256,112.87256,0,0,0,21.05464,17.6671q12.52344,8.32675,24.41486,17.5453c3.09456,2.41042,6.03464,5.02007,9.03,7.55679,3.47647,2.94421,6.93474,5.91,10.40408,8.86265q3.12278,2.65773,6.25594,5.30321c3.2169,2.7084,6.49143,5.35085,9.6485,8.1271,3.10593,2.7312,6.20959,5.47329,9.08708,8.45251q4.60415,4.76683,9.17817,9.56282a25.17883,25.17883,0,0,0,5.05667,4.41038,3.15708,3.15708,0,0,1,1.86393,2.624c.26611,1.18-.5296,1.95712-1.08877,2.81175-1.86269,2.84686-4.6255,4.80264-7.05229,7.09028a4.16323,4.16323,0,0,1-2.75109,1.41939,3.58115,3.58115,0,0,1-2.47583-1.003,44.47125,44.47125,0,0,0-9.43652-5.46733c-3.0573-1.40706-6.07836-2.89261-9.12538-4.32223q-6.18833-2.90345-12.39286-5.77231c-3.50361-1.62058-6.91939-3.40889-10.2737-5.31661-4.38851-2.49593-8.73695-5.05863-13.02365-7.72732a84.32588,84.32588,0,0,1-8.63692-6.34859q-6.43874-5.248-12.77687-10.619c-3.47611-2.94881-6.99645-5.84046-10.64064-8.57647-4.48792-3.36949-9.2094-6.40325-13.85651-9.54459-9.52918-6.44157-19.27533-12.54756-28.99225-18.69467-6.75261-4.2718-13.69372-8.24657-20.5671-12.32622-3.738-2.21864-7.47388-4.44493-11.27462-6.55263-8.52777-4.72919-17.15083-9.26666-26.40382-12.4684-2.18517-.75612-4.34646-1.58165-6.51516-2.38485a14.78617,14.78617,0,0,0-4.85766-1.2604,4.791,4.791,0,0,1-1.02125-.24339c-.4013-.94973.14179-1.76986.3857-2.61886,1.29335-4.50193,2.72778-8.98312,1.66055-13.76751-.11751-.52686.02372-1.33846-.57283-1.46059-.83147-.1702-.87095.75238-1.06968,1.27723a68.08826,68.08826,0,0,1-8.04062,15.121,3.51319,3.51319,0,0,0-.72336,1.49213,2.8127,2.8127,0,0,1-.771.29,60.67667,60.67667,0,0,0-8.88322,1.5599c-5.202,1.10326-10.403,2.21491-15.65562,3.03879-1.859.29156-3.75428.43223-5.63231.62812a138.09275,138.09275,0,0,1-15.12931.28426c-2.80141-.01509-5.58333-.3654-8.36934-.65351-2.5765-.26647-5.147-.55752-7.70965-.93376-2.42255-.35571-4.85642-.63514-7.27753-.99972a55.96617,55.96617,0,0,0-7.72892-.7027c-4.135-.04529-8.25092-.424-12.36978-.74714-.489-.03835-.98048-.05794-1.471-.063-3.57677-.037-7.15405-.11758-10.73032-.087a88.328,88.328,0,0,1-10.46827-.69158,20.39591,20.39591,0,0,0-3.35626.0383,2.66481,2.66481,0,0,0-2.59718,2.32172,7.6,7.6,0,0,0-.24044,1.86848,53.52568,53.52568,0,0,0,.33136,8.6051,11.66743,11.66743,0,0,1,.0762,1.68011c.07,2.87376.54545,5.71458.72019,8.57516.153,2.504.61335,5.008.24421,7.53417a7.88872,7.88872,0,0,0-.02259,1.2612,44.946,44.946,0,0,1-1.04947,9.59047c-.827,4.11448-1.82175,8.19745-2.83448,12.27155-.60753,2.444-1.45642,4.82765-2.07568,7.26914-1.61766,6.37773-2.84552,12.84146-4.10127,19.297a42.84033,42.84033,0,0,0-.59266,9.216c.05149,2.18267-.35622,4.32721-.38459,6.50048a3.64476,3.64476,0,0,1-1.39148,2.72431c-2.06492,1.31818-4.39713,1.258-6.66014,1.055-4.65449-.41771-9.33085-.36892-13.97964-.79063C83.70432,417.33529,81.61935,417.5942,80.76709,415.29541Z"/><path fill="#e499a2" d="M277.34789,234.93923c-3.85852.01333-7.71727.00647-11.5755.04757a55.46123,55.46123,0,0,0-6.88061.69024c-.34664.04721-.69412.1053-1.04268.11835-2.45052.09168-4.86949.45968-7.29546.78305-1.59277.21232-3.20894.26206-4.80755.389-2.09138.16608-4.18958.34954-6.26636.59581-3.42619.40624-6.87539.121-10.27843.4699a89.7533,89.7533,0,0,1-9.86661.26665,60.88552,60.88552,0,0,1-7.72318-.6696c-1.72979-.235-3.47327-.37159-5.21237-.53408a1.03272,1.03272,0,0,0-1.23167.8646c-.16906.67025-.419,1.32008-.6329,1.97771-.29731-1.63739.3149-3.18959.4515-4.78591a7.23377,7.23377,0,0,1,.3205-1.64523,23.94477,23.94477,0,0,0,.81708-7.065c.08492-3.42692.294-6.84977.72077-10.25522a10.16365,10.16365,0,0,0,.05567-1.05009c.06261-3.01306.427-5.99866.78644-8.98612a23.31039,23.31039,0,0,0,.09679-2.52132c.02887-2.595-.0634-5.19652.08983-7.78374.2032-3.43169-.12876-6.84683-.122-10.27069a27.64,27.64,0,0,0-.41449-3.74948c-.34959-2.56221-.73105-5.12006-1.08321-7.68192a15.83572,15.83572,0,0,1-.15331-1.88226c-.02614-1.5426-.01756-3.08577-.02293-4.62872-.77274-1.95161.22168-3.769.42228-5.64627A98.537,98.537,0,0,1,221.45522,133.036a7.10641,7.10641,0,0,1,2.304-2.08208c.88817-1.058,1.76336-2.12716,2.66828-3.17057a14.34908,14.34908,0,0,1,2.79831-2.45826c1.45249-.98679,2.96863-1.48386,4.65529-.56887.69841.82329.10643,1.596-.11692,2.36528a18.06634,18.06634,0,0,0-.589,9.52868,11.51409,11.51409,0,0,0,8.88866,9.06941c6.65551,1.72122,12.28713.02847,17.10349-4.78991a81.59439,81.59439,0,0,0,7.16348-8.51233c2.05124-2.70337,2.80555-5.8989,3.65854-9.07034,2.47189-.212,4.30492,1.35361,6.28137,2.40046.86912.46037,2.27731.60137,2.35614,2.075a52.00447,52.00447,0,0,0,.29929,14.86275,193.17076,193.17076,0,0,0,7.64173,33.15422c.415,1.3716.48165,2.81154.83091,4.19771.382,4.827-.17264,9.61454-.56027,14.41358-.75046,9.29074-2.80275,18.34791-4.81009,27.41482-.26771,1.2092-.29948,2.53021-1.403,3.40067-.49072,1.81522-.99856,3.62607-1.46684,5.447A42.63513,42.63513,0,0,1,277.34789,234.93923Z"/><path fill="#f6c193" d="M286.09985 176.03354a29.09372 29.09372 0 0 1-1.29741-3.96717c-.36812-1.48586-.813-2.95488-1.27814-4.41412a102.48266 102.48266 0 0 1-2.90946-11.74034c-.513-2.65855-1.0708-5.30879-1.55284-7.97283-.247-1.36517-.21329-2.79768-.59041-4.1187-.5056-1.7711-.09494-3.63385-.72373-5.36757a1.883 1.883 0 0 1-.05791-.62366c-.00678-3.0762-.0055-6.15243-.01619-9.22861a.91888.91888 0 0 1 .81967-1.02663c.17526-.1104.363-.28064.56284-.22964 2.46257.62831 5.02637.75969 7.46026 1.52443 2.83639.275 5.57335-.41413 8.319-.919a40.6361 40.6361 0 0 1 8.12985-.8084c.77154.0145 1.54536.035 2.31509-.00542a22.66461 22.66461 0 0 1 7.83825 1.257c4.01543 1.22528 8.01651 2.50367 12.102 3.48371a91.67411 91.67411 0 0 0 11.75218 2.11318c2.99048.31619 5.97776.60681 8.9761.85131 8.12716.66277 16.2602.25058 24.38893.38455a95.76993 95.76993 0 0 0 10.48488-.58166c2.1486-.20062 4.31711-.38832 6.46764-.62014 3.40234-.3668 6.845-.44009 10.26973-.61786 7.35976-.382 14.72094-.13366 22.07749-.35871 2.686-.56483 5.44419-.224 8.15036-.69218 1.99125-.34445 4.03935-.35049 6.05775-.5509 1.87693-.18636 3.74743-.43712 5.62215-.647 1.8755-.21 3.74862-.4991 5.63033-.58179 2.30862-.10145 4.58659-.50189 6.912-.4749 6.66492.07733 13.33112.05816 19.99681.05472 5.3326-.00275 10.66989.08954 15.99591-.10854 3.00569-.11178 6.02958-.13981 9.01764-.44226 2.099-.21246 4.19078-.24981 6.28613-.368a10.108 10.108 0 0 1 3.73371.03024 6.07848 6.07848 0 0 1 .6154.11924c1.3996.619 1.3466 1.36834.4399 2.20318a5.96665 5.96665 0 0 1-1.97989 1.17084c-2.88191 1.08391-5.77241 2.145-8.65972 3.21451a111.13506 111.13506 0 0 0-28.83927 4.603 10.26538 10.26538 0 0 1 3.66335-.515c1.28656.06944 2.68174-.392 3.80449.655a1.51027 1.51027 0 0 1-.97882.3165c-3.29606-.00582-6.596.07709-9.88635-.06392a35.73242 35.73242 0 0 0-4.391-.25589 51.78222 51.78222 0 0 0-9.13494 1.166 37.25307 37.25307 0 0 0-5.46923 2.13715c-4.231 1.86-8.44824 3.74485-12.791 5.33984a92.34836 92.34836 0 0 1-13.91856 3.92569c-2.74068.5427-5.48211 1.08767-8.23638 1.55361-2.27222.38443-4.56246.66408-6.84715.97237-2.9758.40153-5.95183.803-8.932 1.17032-1.73395.21375-3.47752.34809-5.2142.54126-2.01253.22387-4.02224.473-6.03312.71143-.13928.01651-.27778.04322-.41747.05194-2.58344.16133-5.16665.327-7.75068.47881-3.42368.20108-6.85321.3413-10.27293.54564-2.44591.14616-4.91086.06788-7.33249.36408-2.85189.34882-5.7419.1142-8.56835.68731a2.21483 2.21483 0 0 1-.41878.035c-3.99252.03491-7.9732.38809-11.95635.58466-6.23609.30775-12.4739.09334-18.69971.38991a36.05778 36.05778 0 0 0-8.29285 1.11893 4.97668 4.97668 0 0 1-.83258.09683c-3.39751-.01088-6.74747-.87557-10.18947-.35208a7.59742 7.59742 0 0 0-6.05636 3.86137c-1.73143 3.07454-2.86785 6.54844-5.69607 8.93161C287.26136 175.4526 286.98283 176.23615 286.09985 176.03354zM223.75924 130.95389a92.93167 92.93167 0 0 0-6.60458 9.36413c-.85879 1.34846-1.62968 2.75307-2.434 4.136-.52464.902-1.04882 1.80459-1.55342 2.71786-1.24889 2.26036-2.2118 4.65412-3.24441 7.01491a60.56 60.56 0 0 0-2.61089 7.04084 1.86317 1.86317 0 0 1-.36175.49511c-2.67943-1.96479-5.76042-2.13667-8.90135-1.934-1.1172.07211-2.16021-.48522-3.27426-.26425a39.00909 39.00909 0 0 0-7.55594-1.66407c-2.4249-.27006-4.82272-.77662-7.24481-1.08081-1.52325-.19131-3.05837-.26857-4.58069-.51709-2.61622-.42711-5.24753-.76154-7.87208-1.13794-2.28015-.327-4.562-.64275-6.83894-.99116-3.37957-.51714-6.75429-1.066-10.13318-1.5877q-4.55312-.70305-9.11114-1.37435c-2.76155-.40484-5.52288-.81559-8.29175-1.16478-1.80117-.22714-3.61707-.33492-5.42381-.5211-2.22135-.22891-4.43835-.50054-6.66039-.722-1.66818-.16624-3.34338-.31756-5.009-.4424-3.0006-.22492-5.96787-.69309-8.952-1.01761-2.56013-.27844-5.08662-.88581-7.61964-1.38967-5.002-.995-9.93952-2.27441-14.90959-3.4088-6.19423-1.41379-12.378-2.88224-18.62751-4.0532a52.16366 52.16366 0 0 1-5.45252-1.5101 11.088 11.088 0 0 0-6.40584-.16483 14.74361 14.74361 0 0 1-4.56648.531c-1.61062-.05077-3.22371-.01763-4.83553-.03755a2.25538 2.25538 0 0 1-1.59919-.36513c.52606-.63158 1.21614-.469 1.89531-.28859-2.4416-.40712-4.53849-1.693-6.81254-2.46743-6.5262-2.2226-13.29368-3.11355-20.10335-3.80721a1.04 1.04 0 0 0-.59346.165 24.07812 24.07812 0 0 1-12.73612-3.66956 8.89715 8.89715 0 0 1-1.32565-1.01655.5936.5936 0 0 1-.0246-.77549 1.63008 1.63008 0 0 1 1.39889-.80322 43.60411 43.60411 0 0 1 4.61987.12919c.89822.10416 1.80154.21485 2.70256.3279 2.7719.3478 5.53121.80255 8.30714 1.10975a68.43131 68.43131 0 0 0 6.9051.5043c8.83889.07776 17.67859.06336 26.518.09092 2.66076.00829 5.29929.40574 7.96937.377 5.12034-.05517 10.25094-.16114 15.36134.08494 8.971.432 17.94412.15528 26.91364.35873 2.89431.61916 5.88233.11149 8.77728.72821a1.69464 1.69464 0 0 0 .41909.02919c3.091-.1279 6.14247.43885 9.22574.521 2.29768.06125 4.58889.41814 6.87949.67458a25.84357 25.84357 0 0 1 4.79875.49532c2.60123-.11714 5.162.39346 7.75135.50642 2.43944.1064 4.8685.45111 7.30206.69162.13955.01377.27814.04272.41785.04847 5.10825.20989 10.21432.80583 15.32745.41414a58.28865 58.28865 0 0 0 8.3029-1.10923q7.97893-1.78452 16.00657-3.3483a57.64808 57.64808 0 0 1 10.3887-1.32292 32.00864 32.00864 0 0 1 12.26639 2.468c1.23447.49432 2.45444 1.03907 3.63607 1.648a11.25741 11.25741 0 0 0 6.07569 1.336C222.35431 130.95507 223.05782 130.96921 223.75924 130.95389zM270.15771 123.317a15.78577 15.78577 0 0 1-3.3173 9.329 60.80026 60.80026 0 0 1-7.415 8.81013 21.52487 21.52487 0 0 1-5.41989 3.89982 15.07276 15.07276 0 0 1-8.12947 1.56563 29.57862 29.57862 0 0 1-5.33116-1.017 9.82541 9.82541 0 0 1-3.63266-2.034 12.67872 12.67872 0 0 1-4.38372-7.64441 18.80845 18.80845 0 0 1 1.0287-10.05537 3.74218 3.74218 0 0 0 .32379-1.415 8.88021 8.88021 0 0 0 3.43066-7.4803c-.033-.76465-.01336-1.53157-.01794-2.29744.46577-.15183.89611.32838 1.4039.01251 1.18481-.737 3.70384-5.94136 3.39219-7.25517-.30243-1.27486-1.04246-.53074-1.57026-.21368-2.14562 1.2889-4.1601 2.81425-6.5935 3.57117a19.91275 19.91275 0 0 0-7.88713-.47923 30.13181 30.13181 0 0 1-6.4718.57492c-.34941-.02405-.70265.00361-1.05152-.02457a3.08481 3.08481 0 0 1-3.12739-3.06063 65.998 65.998 0 0 1-.44358-8.80489c.0523-.97972-.01954-1.96663.04454-2.945a4.50924 4.50924 0 0 0-1.82075-4.03644c-.49121-.39373-.91927-.86525-1.39405-1.28077-1.37377-1.20224-1.32543-2.70584-.83219-4.24363a7.29775 7.29775 0 0 1 1.27333-2.16521 18.80491 18.80491 0 0 0 3.21688-5.62667 25.608 25.608 0 0 0 .81852-3.46031c.35673-2.00343.26107-4.04088.65467-6.0439a30.52854 30.52854 0 0 1 1.81149-5.79848 5.11312 5.11312 0 0 0 .54688-1.79392c3.50407-6.53759 8.27106-7.54917 14.00993-6.67507 3.06087.46623 4.969 3.024 6.70365 5.41333 2.01083 2.76968 2.80478 6.0826 3.74484 9.30827.39161 1.34382.66888 2.72195 1.179 4.0304 1.28135 3.28717 3.7194 4.4427 7.04415 3.41036 1.59192-.49429 3.10233-1.94705 4.90788-.55823 2.06242 1.58636 2.70956 3.82322 2.84254 6.28586a6.85079 6.85079 0 0 1-.03318 1.04869 10.69414 10.69414 0 0 1-2.19925 4.479 5.67536 5.67536 0 0 0-1.05716 5.12923 56.34235 56.34235 0 0 1 1.23938 7.8722c.4184 3.72 2.29 6.89429 4.10623 10.03919 2.204 3.81623 4.48877 7.60529 7.89114 10.5411A1.20219 1.20219 0 0 1 270.15771 123.317z"/><path fill="#8c4646" d="M259.18735,84.25471a11.61323,11.61323,0,0,0-.80857-4.719,6.05783,6.05783,0,0,0-1.74485-2.32623,1.84077,1.84077,0,0,0-1.965-.34944c-.65058.25743-1.29032.54373-1.92764.83308a7.97961,7.97961,0,0,1-3.463.72482,4.25642,4.25642,0,0,1-3.01787-1.26167,6.63516,6.63516,0,0,1-1.83211-2.77882c-.43654-1.40222-.82957-2.81794-1.25586-4.22346-.54816-1.80731-1.02736-3.64129-1.68514-5.40836a16.602,16.602,0,0,0-6.13395-8.06777,5.78355,5.78355,0,0,0-3.52682-1.15105c-.20975.00538-.42042-.008-.63017-.02051a11.25845,11.25845,0,0,0-10.48355,5.00162c-.37828.533-.60018,1.31644-1.44916,1.39536-.94275-2.75949-.12334-5.236,1.23979-7.61851a13.68227,13.68227,0,0,1,5.38141-5.17907,37.87392,37.87392,0,0,1,14.0492-4.74149,27.04393,27.04393,0,0,1,15.95289,2.58875,44.15821,44.15821,0,0,1,15.6328,13.4765,13.776,13.776,0,0,1,2.74186,8.875,7.6187,7.6187,0,0,1-1.631,5.095,1.07743,1.07743,0,0,0,.86159.51365c.13768.02655.27729.043.41544.06737,4.53071.79925,7.08082,3.68844,8.32184,7.92979a13.68727,13.68727,0,0,1,.57212,4.15316c-.03948,1.8234-.01314,3.65065-.125,5.46949a12.26626,12.26626,0,0,0,2.23863,7.73192c.62138.9335,1.24439,1.86748,1.82334,2.82737a6.55461,6.55461,0,0,1,.35108,6.80354,6.15935,6.15935,0,0,0-.00853,5.84739c.1521.31558.26791.6495.43143.9586a4.5718,4.5718,0,0,1-.29526,4.78586c-.43492.72-.87,1.44414-1.36539,2.12237a3.31788,3.31788,0,0,0-.11594,4.10014,7.76821,7.76821,0,0,1,.37812.742c-2.2009.4747-4.10192-.47467-5.97944-1.35044-11.63482-5.42714-18.7004-14.5906-21.86968-26.90681a71.49426,71.49426,0,0,1-1.54232-7.18088,5.66527,5.66527,0,0,1,.90333-4.3659A6.74739,6.74739,0,0,0,259.18735,84.25471Z"/><path fill="#f6c193" d="M80.76709 415.29541a5.26789 5.26789 0 0 0 3.954 1.55725c2.8437.18387 5.69225.29228 8.53864.43492 1.943.09731 3.88564.076 5.829.32744 2.35955.30528 4.7133-.19153 7.06635-.37966a7.46041 7.46041 0 0 1 1.32428 4.35414 107.65334 107.65334 0 0 1 .50123 14.90463 12.26823 12.26823 0 0 1-2.3985 7.04962A8.32653 8.32653 0 0 1 99.46 446.79026a40.56291 40.56291 0 0 1-11.043-.67909c-1.582-.27331-3.18415-.45265-4.78446-.58871a25.84739 25.84739 0 0 0-3.33288-.391c-2.86571.12085-5.71536.37221-8.56343.71255-3.96344.47358-7.83163 1.46391-11.76276 2.08131a61.62192 61.62192 0 0 1-11.6968 1.02364c-1.75218-.0606-3.50764-.04811-5.26139-.03634a29.58917 29.58917 0 0 1-6.63573-.9288 9.8256 9.8256 0 0 1-2.90867-1.191 3.83432 3.83432 0 0 1-2.05965-3.84885 3.87982 3.87982 0 0 1 2.83017-3.33678 18.08042 18.08042 0 0 1 2.83471-.75819 44.697 44.697 0 0 0 7.88492-2.15842A106.66123 106.66123 0 0 0 58.85172 430.718a96.83211 96.83211 0 0 0 14.271-8.85592A57.29994 57.29994 0 0 0 80.76709 415.29541zM448.64287 434.59982a9.18728 9.18728 0 0 1 2.0204-2.05992 34.40869 34.40869 0 0 0 4.76378-4.891 16.67625 16.67625 0 0 0 1.7203-2.82609 46.409 46.409 0 0 1 10.69908 6.17376 11.90451 11.90451 0 0 1 3.893 5.38267 41.60777 41.60777 0 0 0 2.19615 4.99592q3.86046 7.70729 7.734 15.40816a21.91526 21.91526 0 0 1 1.72827 4.71993 10.34351 10.34351 0 0 1 .17909 3.34166 3.25109 3.25109 0 0 1-3.03926 2.97567 6.70933 6.70933 0 0 1-3.31313-.34316c-.5789-.24674-1.17507-.45286-1.75649-.69394a8.84762 8.84762 0 0 0-7.11537-.254 12.0829 12.0829 0 0 1-2.23048.55989 6.418 6.418 0 0 1-5.485-1.40146c-1.37493-1.07689-2.62593-2.31329-3.91707-3.4952a6.82087 6.82087 0 0 1-2.0827-3.57883 24.55865 24.55865 0 0 1-.97408-6.2005c.038-1.191-.57551-2.32295-.34769-3.53606a14.57475 14.57475 0 0 0 .05659-8.45843 7.8739 7.8739 0 0 0-3.12639-3.8469C449.56746 436.05643 448.515 435.79052 448.64287 434.59982z"/><path fill="#8c4646" d="M294.47259,172.62934a13.34321,13.34321,0,0,0,2.05943,7.57834,8.94207,8.94207,0,0,1,.75948,8.0649q-.77783,2.17173-1.6343,4.315a29.27138,29.27138,0,0,0-1.30287,3.98353,10.87959,10.87959,0,0,0,.60085,7.38079c.625,1.32758,1.34869,2.60847,2.01827,3.91534a17.17173,17.17173,0,0,1,1.50251,3.67987,3.51445,3.51445,0,0,1-.70864,3.14761,7.29236,7.29236,0,0,1-2.03174,1.80116,18.78962,18.78962,0,0,1-1.63382.94364,29.8642,29.8642,0,0,0-7.8689,5.52248,8.80327,8.80327,0,0,1-3.31676,2.15358,5.00017,5.00017,0,0,1-1.02117.11851c-.9288-1.46509-.02568-2.8616.2766-4.215,1.41556-6.3381,3.08292-12.617,3.93195-19.07753a91.52513,91.52513,0,0,0,1.16831-16.66932,10.773,10.773,0,0,1,3.72461-8.85265c.96944-.94026,2.282-1.69649,2.43538-3.27215C293.60218,172.6215,293.89235,172.33272,294.47259,172.62934Z"/><path fill="#e5ac7a" d="M294.47259,172.62934c-.3508-.00134-.67775.04378-.83086.42707-1.70326,2.78145-3.63018,5.342-6.69566,6.77769-.09136-.10389-.2439-.19691-.26462-.31338-.20633-1.1602-.39092-2.32427-.5816-3.48722,1.84262-2.07572,3.936-3.93179,5.034-6.61147a50.92674,50.92674,0,0,1,2.4812-4.62048,4.67143,4.67143,0,0,1,2.0872-1.99846,8.00736,8.00736,0,0,1,4.00278-1.09681,3.79574,3.79574,0,0,0,1.65253-.23529,2.22988,2.22988,0,0,1,1.65009-.07053,8.68807,8.68807,0,0,0,2.90677.31574,8.79093,8.79093,0,0,1,3.79537.86847,57.952,57.952,0,0,0-6.71543,2.8774,33.01463,33.01463,0,0,0-7.54463,5.61315C295.00826,171.52026,294.49693,171.92184,294.47259,172.62934Z"/><path fill="#7287cc" d="M235.62453,317.55919c-.28773-.10643-.8249-.09877-.50514-.60414,1.04353-1.64934,2.20665-3.22585,3.19848-4.90441a53.12051,53.12051,0,0,0,3.746-6.98966c.70586-1.74221,1.47986-3.45907,2.14841-5.21916a3.059,3.059,0,0,1,.78919-1.2218c.30171-.27223.70913-.28261.88619.05274a4.16078,4.16078,0,0,1,.57677,1.32951,25.33692,25.33692,0,0,1,.14784,8.08416,61.94681,61.94681,0,0,1-2.62742,9.42938Q239.80463,317.53747,235.62453,317.55919Z"/><path fill="#69302f" d="M259.18735,84.25471a.76408.76408,0,0,1,.351.719,8.95967,8.95967,0,0,1-1.13149,3.55215,11.37315,11.37315,0,0,1-.70139,1.04226,2.86624,2.86624,0,0,0-.59913,2.55743,63.27806,63.27806,0,0,0,1.67829,7.96363c1.31573,4.50585,2.81647,8.95848,5.49508,12.86881a36.57164,36.57164,0,0,0,9.57588,9.85829,42.96223,42.96223,0,0,0,8.82531,4.77914,14.916,14.916,0,0,0,3.433.85648l.4027.41676a12.92468,12.92468,0,0,1-6.06371-.70572,5.99064,5.99064,0,0,0-1.95872-.58886,9.89512,9.89512,0,0,1-2.502-1.46238,3.0361,3.0361,0,0,0-.89563-.53135c-1.64291-.7621-3.29218-1.51043-4.939-2.26348a27.36591,27.36591,0,0,1-6.342-7.18578,75.26615,75.26615,0,0,1-5.30832-9.504,17.941,17.941,0,0,1-1.48321-5.64292,51.16946,51.16946,0,0,0-1.296-7.84237,4.58583,4.58583,0,0,1,.63987-3.78368,13.85213,13.85213,0,0,1,.82535-1.21131A11.48024,11.48024,0,0,0,259.18735,84.25471Z"/><path fill="#e5ac7b" d="M476.08475,140.7173h-8.11916a1.475,1.475,0,0,1,1.205-.78693c3.57405-.93351,7.16029-1.8202,10.73876-2.73716,1.48689-.381,3.03453-.43777,4.51206-.78668,1.98616-.469,4.01293-.358,6.01189-.67442a26.27854,26.27854,0,0,1,6.69551-.00394c.11627.01167.21877.16113.32754.24631C490.58524,138.69477,483.53711,140.6168,476.08475,140.7173Z"/><path fill="#6b3131" d="M286.94607,179.8341a41.77853,41.77853,0,0,0,4.97952-4.982c.56166-.60819,1.14362-1.19763,1.71622-1.79563a.73864.73864,0,0,1,.29549,1.07522,4.74776,4.74776,0,0,1-.80245.95832,52.24047,52.24047,0,0,0-4.37468,4.79121,4.05915,4.05915,0,0,0-.97887,2.68363c.02434,2.86906.00591,5.73856-.0055,8.60786a7.61968,7.61968,0,0,1-.30431,2.90177,3.25434,3.25434,0,0,0-.09759,1.03819,85.2748,85.2748,0,0,1-1.944,14.24006c-.86205,4.01507-1.908,7.99035-2.83613,11.99169a15.51188,15.51188,0,0,0-.699,3.88974l-1.26929.032c1.23809-5.17377,2.39844-10.36437,3.353-15.599.50223-2.754,1.02469-5.505,1.4755-8.26759.53025-3.24947.78155-6.53179,1.06764-9.8105C286.863,187.67615,286.95718,183.7579,286.94607,179.8341Z"/><path fill="#e5ac7a" d="M194.77457,159.52445a1.215,1.215,0,0,1,.95124-.34047c2.0262.00428,4.05452-.04715,6.07771.03227a11.04421,11.04421,0,0,1,3.06854.51908,4.30558,4.30558,0,0,1,2.07792,1.98728,30.39489,30.39489,0,0,1-.67693,4.6873c-.06048.40827-.13013.81517-.19567,1.22275a21.51465,21.51465,0,0,1-6.57771-4.73662A12.90348,12.90348,0,0,0,194.77457,159.52445Z"/><path fill="#e5ad7b" d="M17.47051,130.50694c.2417-.12041.481-.33912.72549-.345a27.46443,27.46443,0,0,1,4.18578.01443c2.81649.3677,5.61306.89408,8.41164,1.39007,1.2295.21792,2.4511.492,3.66357.79194A45.042,45.042,0,0,1,42.295,135.2c.99079.45152,2.15339.56883,3.11679,1.58067-.88581.04724-1.60638.08566-2.32712.12433a15.64807,15.64807,0,0,1-5.66819-1.26709,58.211,58.211,0,0,0-11.80557-3.3721,20.4286,20.4286,0,0,1-2.43608-.549A38.97568,38.97568,0,0,0,17.47051,130.50694Z"/><path fill="#e5ac7a" d="M233.92609,111.09283a1.56211,1.56211,0,0,1,.73018-.72123A47.30914,47.30914,0,0,0,240.751,106.727a4.1309,4.1309,0,0,1,.74493-.38037.81685.81685,0,0,1,1.132.57614,2.838,2.838,0,0,1,.06292,1.03421,15.91814,15.91814,0,0,1-3.7113,7.58667,2.10453,2.10453,0,0,1-.47088.41348c-.362.22246-.63455.15205-.8068-.27446a5.5051,5.5051,0,0,0-.40832-.7048c-.08314-.26574-.16582-.53179-.24992-.79741A4.26136,4.26136,0,0,0,233.92609,111.09283Z"/><path fill="#e5ad7b" d="M448.64287,434.59982c.46278.85838,1.39354,1.12892,2.11447,1.65677a7.847,7.847,0,0,1,3.04342,3.64941,12.62792,12.62792,0,0,1,.64937,5.97988c-.0971.68129-.32111,1.3501-.37781,2.05242a1.17937,1.17937,0,0,1-.75686.93913c-.23131-1.29243-.45728-2.58573-.69548-3.87682a11.94393,11.94393,0,0,0-4.26-7.16959c-.69009-.57674-1.40356-1.12542-2.10537-1.6871Q447.44971,435.37172,448.64287,434.59982Z"/></svg>