<svg xmlns="http://www.w3.org/2000/svg" width="32" height="32" viewBox="0 0 32 32"><g transform="translate(759.414 -1955.45)"><path fill="#0c242d" fill-rule="evenodd" style="line-height:normal;font-variant-ligatures:normal;font-variant-position:normal;font-variant-caps:normal;font-variant-numeric:normal;font-variant-alternates:normal;font-feature-settings:normal;text-indent:0;text-align:start;text-decoration-line:none;text-decoration-style:solid;text-decoration-color:#000;text-transform:none;text-orientation:mixed;shape-padding:0;isolation:auto;mix-blend-mode:normal" d="m -738.66406,941.83789 c -0.66644,0 -1.27042,0.0839 -1.75,0.24414 -0.2398,0.08 -0.45132,0.17591 -0.63477,0.32031 -0.15909,0.12524 -0.31207,0.3198 -0.35156,0.56836 l -0.28711,0.91992 c -0.16075,0.5138 -0.38822,0.99656 -0.66406,1.44727 h -10.0625 c -1.45281,0 -2.72468,0.9153 -3.60156,2.2793 -0.8769,1.3641 -1.39844,3.2009 -1.39844,5.2207 0,2.0199 0.52153,3.85465 1.39844,5.21875 0.87689,1.364 2.14875,2.28125 3.60156,2.28125 h 18 c 1.45282,0 2.72662,-0.91725 3.60351,-2.28125 0.8769,-1.3641 1.39649,-3.19885 1.39649,-5.21875 0,-2.0198 -0.51959,-3.8566 -1.39649,-5.2207 -0.87689,-1.364 -2.15069,-2.2793 -3.60351,-2.2793 h -1.82617 c 0.0369,-0.19279 0.0833,-0.38308 0.10937,-0.57812 l 0.21289,-1.59375 a 0.50005,0.50005 0 0 0 -0.0156,-0.2168 c -0.0449,-0.23825 -0.19314,-0.42524 -0.34766,-0.54688 -0.18344,-0.1444 -0.39498,-0.24051 -0.63477,-0.32031 -0.47956,-0.1597 -1.08162,-0.24414 -1.74804,-0.24414 z" color="#000" font-family="sans-serif" font-weight="400" overflow="visible" transform="translate(0 1020.362)" white-space="normal"/><path fill="#e5c998" fill-rule="evenodd" style="line-height:normal;font-variant-ligatures:normal;font-variant-position:normal;font-variant-caps:normal;font-variant-numeric:normal;font-variant-alternates:normal;font-feature-settings:normal;text-indent:0;text-align:start;text-decoration-line:none;text-decoration-style:solid;text-decoration-color:#000;text-transform:none;text-orientation:mixed;shape-padding:0;isolation:auto;mix-blend-mode:normal" d="m -738.66406,942.83789 c 0.57645,0 1.09672,0.082 1.43164,0.19336 0.0602,0.02 0.0727,0.0356 0.11914,0.0566 -0.0463,0.021 -0.0593,0.0347 -0.11914,0.0547 -0.33492,0.1115 -0.85519,0.19336 -1.43164,0.19336 -0.57647,0 -1.09866,-0.082 -1.4336,-0.19336 -0.0598,-0.02 -0.0729,-0.0337 -0.11914,-0.0547 0.0465,-0.021 0.0589,-0.0366 0.11914,-0.0566 0.33494,-0.1115 0.85713,-0.19336 1.4336,-0.19336 z" color="#000" font-family="sans-serif" font-weight="400" overflow="visible" transform="translate(0 1020.362)" white-space="normal"/><path fill="#bc8c5e" fill-rule="evenodd" style="line-height:normal;font-variant-ligatures:normal;font-variant-position:normal;font-variant-caps:normal;font-variant-numeric:normal;font-variant-alternates:normal;font-feature-settings:normal;text-indent:0;text-align:start;text-decoration-line:none;text-decoration-style:solid;text-decoration-color:#000;text-transform:none;text-orientation:mixed;shape-padding:0;isolation:auto;mix-blend-mode:normal" d="m -740.66992,943.98828 c 0.0827,0.0366 0.16507,0.0733 0.25586,0.10352 0.47958,0.1597 1.08356,0.24414 1.75,0.24414 0.60823,0 1.15061,-0.0789 1.60742,-0.21289 l -0.0664,0.5039 c -0.17906,1.3423 -0.64322,2.6311 -1.36133,3.7793 l -0.0996,0.16016 a 0.50019751,0.50019751 0 1 0 0.84765,0.53125 l 0.0996,-0.16016 c 0.50641,-0.8097 0.885,-1.68826 1.1543,-2.59961 h 2.06836 c 0.75739,0 1.48442,0.35174 2.11523,1 h -1.24414 a 0.50005,0.50005 0 1 0 0,1 h 1.98633 c 0.69267,1.15829 1.14258,2.74 1.14258,4.5 0,0.34296 -0.0323,0.67161 -0.0645,1 h -4.43554 a 0.50004997,0.50004997 0 1 0 0,1 h 4.28125 c -0.14996,0.73557 -0.37182,1.40958 -0.66016,2 h -7.37109 a 0.50004997,0.50004997 0 1 0 0,1 h 6.76367 c -0.71446,0.95205 -1.58745,1.5 -2.51367,1.5 h -15.49805 c 0.32993,-0.28409 0.62943,-0.62329 0.90039,-1 h 4.34766 a 0.50004997,0.50004997 0 1 0 0,-1 h -3.74414 c 0.19287,-0.38666 0.34641,-0.81273 0.48632,-1.25 h 4.75782 a 0.50004997,0.50004997 0 1 0 0,-1 h -4.5 c 0.14887,-0.71547 0.25,-1.46103 0.25,-2.25 0,-0.51347 -0.0351,-1.01494 -0.0996,-1.5 h 3.22461 a 0.50004997,0.50004997 0 1 0 0,-1 h -3.42383 c -0.23808,-1.0196 -0.60248,-1.9504 -1.09766,-2.7207 -0.31686,-0.49288 -0.68742,-0.92561 -1.09765,-1.2793 h 6.80664 c -0.6062,0.66156 -1.34665,1.2009 -2.1875,1.56836 l -1.06836,0.4668 a 0.50113531,0.50113531 0 1 0 0.40234,0.91797 l 1.06836,-0.4668 c 1.99018,-0.8697 3.50579,-2.56197 4.1543,-4.63477 z" color="#000" font-family="sans-serif" font-weight="400" overflow="visible" transform="translate(0 1020.362)" white-space="normal"/><path fill="#e5c998" fill-rule="evenodd" style="line-height:normal;font-variant-ligatures:normal;font-variant-position:normal;font-variant-caps:normal;font-variant-numeric:normal;font-variant-alternates:normal;font-feature-settings:normal;text-indent:0;text-align:start;text-decoration-line:none;text-decoration-style:solid;text-decoration-color:#000;text-transform:none;text-orientation:mixed;shape-padding:0;isolation:auto;mix-blend-mode:normal" d="m -752.41406,946.33789 c 1.03247,0 2.00993,0.65091 2.76172,1.82031 0.75178,1.1695 1.23828,2.83359 1.23828,4.67969 0,1.8462 -0.4865,3.51029 -1.23828,4.67969 -0.75179,1.1694 -1.72925,1.82031 -2.76172,1.82031 -1.03247,0 -2.00994,-0.65091 -2.76172,-1.82031 -0.75178,-1.1694 -1.23828,-2.83349 -1.23828,-4.67969 0,-1.51908 0.34139,-2.89764 0.87695,-3.99609 -0.20847,0.79341 -0.34313,1.67042 -0.37109,2.60547 -0.0428,1.4249 0.14688,2.78618 0.51953,3.92578 0.37264,1.1397 0.91748,2.07199 1.69336,2.59179 0.77951,0.5221 1.76587,0.50353 2.52734,-0.0176 0.76147,-0.5208 1.31343,-1.48492 1.5,-2.79102 0.17395,-1.2176 0.24068,-2.68547 0.0644,-3.98047 -0.0881,-0.6476 -0.23616,-1.25348 -0.48242,-1.77148 -0.24626,-0.5181 -0.60468,-0.96587 -1.12109,-1.19727 a 0.50004997,0.50004997 0 0 0 -0.01,0 c -0.65856,-0.2782 -1.39227,2e-5 -1.86132,0.54102 -0.46907,0.5383 -0.79142,1.3226 -0.9629,2.2832 -0.34295,1.9213 -0.027,4.00327 0.97461,5.13867 a 0.50022236,0.50022236 0 0 0 0.75,-0.66211 c -0.62298,-0.7062 -1.03747,-2.63558 -0.74023,-4.30078 0.14862,-0.8326 0.44046,-1.46578 0.73242,-1.80078 0.29031,-0.3331 0.46549,-0.37849 0.71289,-0.27539 0.23049,0.1056 0.4437,0.32973 0.62305,0.70703 0.18093,0.3806 0.31377,0.89726 0.39258,1.47656 0.15762,1.1586 0.10025,2.56588 -0.0625,3.70508 -0.15723,1.1006 -0.60807,1.78667 -1.07422,2.10547 -0.46616,0.3188 -0.93267,0.33057 -1.40625,0.0137 -0.47712,-0.3196 -0.9688,-1.06101 -1.29883,-2.07031 -0.33003,-1.0093 -0.51022,-2.27179 -0.4707,-3.58789 0.0394,-1.3162 0.2934,-2.51732 0.67578,-3.41992 0.38238,-0.9025 0.89638,-1.47449 1.3457,-1.65039 a 0.50004997,0.50004997 0 0 0 0.084,-0.043 0.50004997,0.50004997 0 0 0 0.004,0 c 0.12701,-0.0201 0.25571,-0.0293 0.38477,-0.0293 z" color="#000" font-family="sans-serif" font-weight="400" overflow="visible" transform="translate(0 1020.362)" white-space="normal"/><path fill="#0c242d" fill-rule="evenodd" style="line-height:normal;font-variant-ligatures:normal;font-variant-position:normal;font-variant-caps:normal;font-variant-numeric:normal;font-variant-alternates:normal;font-feature-settings:normal;text-indent:0;text-align:start;text-decoration-line:none;text-decoration-style:solid;text-decoration-color:#000;text-transform:none;text-orientation:mixed;shape-padding:0;isolation:auto;mix-blend-mode:normal" d="M-738.16406 1971.6992a.50005.50005 0 1 0 0 1h4.5a.50005.50005 0 1 0 0-1zM-742.16406 1970.6992a.50005.50005 0 1 0 0 1h1a.50005.50005 0 1 0 0-1zM-742.54297 1973.1992a.50005.50005 0 1 0 0 1h2.25781a.50005.50005 0 1 0 0-1zM-741.11719 1975.4492a.50005.50005 0 1 0 0 1h1.20313a.50005.50005 0 1 0 0-1zM-739.04883 1965.6133a.50005.50005 0 0 0-.44922.3222c-.12465.3134-.26495.6183-.42187.9161-.31389.5955-.69174 1.1592-1.12696 1.6777a.50005.50005 0 1 0 .76563.6426c.48118-.5733.89918-1.1953 1.24609-1.8535.17348-.3292.32906-.6675.4668-1.0137a.50005.50005 0 0 0-.48047-.6914z" color="#000" font-family="sans-serif" font-weight="400" overflow="visible" white-space="normal"/><path fill="#0c242d" d="M-1922.3517 868.87982h.8839v.88389h-.8839zM-1922.6143 874.27411h.8839v.88388h-.8839zM-1917.6646 874.98114h.8839v.88388h-.8839zM-1912.5381 876.5722h.8839v.88389h-.8839z" transform="rotate(-45)"/></g></svg>